<svg data-v-05ad9ff8="" data-v-fd135822="" viewBox="0 0 24 24" class="icon-brand stepped-selection__list-item-brand-icon"><path d="M23 11.56v2.43h-1.22V12.33a.58.58 0 0 0-1.16 0v1.66h-1.34V10.8h1.34v.51s.41-.74 1.76-.51.6.14.6.77ZM4.53 9.99 6.55 14H5.21l-.58-1.15H2.92L2.34 14H1l2.02-4.01zm-.29 2.08-.46-.92-.46.92zm5.16 1.94h1.39v-3.1H9.4zm-1.16-2.62v-.59H6.9v3.19h1.34v-1.87c.09-.13.35-.46.8-.45v-.76c-.49 0-.74.37-.8.48m9.36 1.04a.58.58 0 0 1-1.16 0V10.77h-1.22v2.43c0 .63.56.75.6.76 1.35.24 1.76-.5 1.76-.5v.55h1.34v-3.23h-1.34v1.66Zm-6.34-.89c0 .36.18.56.37.68h.03c.08.06.15.09.22.11l1 .46s.63.32.12.52c0 0-.16.1-1.66-.1-.01 0-.17-.03-.18-.03V14h2.51s1.18.11 1.18-.77c0-.49-.32-.69-.57-.78l-1.04-.47s-.58-.26-.12-.52c0 0 .27-.18 1.66.1.01 0 .08.02.09.02v-.81h-2.42s-1.18-.11-1.18.77Zm-1.86-.95h1.39v-.6H9.4z" fill="currentColor"></path></svg>