<svg data-v-05ad9ff8="" data-v-fd135822="" viewBox="0 0 24 24" class="icon-brand stepped-selection__list-item-brand-icon"><path d="M16.36 13.53c.69-.89.64-2.27 0-3.06-.62.82-.69 2.13 0 3.06M12 10.47c-.68.89-.64 2.24 0 3.06.67-.86.65-2.23 0-3.06m-4.36 0c-.68.89-.64 2.23 0 3.06.67-.87.65-2.22 0-3.06m8.15-.6c-.91-.74-2.34-.72-3.22.01.47.63.72 1.33.72 2.12s-.25 1.49-.72 2.12c.93.76 2.36.73 3.22 0-.95-1.42-.95-2.83 0-4.25m-7.57 4.25c.91.74 2.34.72 3.21 0-.95-1.42-.95-2.83 0-4.25-.9-.74-2.34-.72-3.21 0 .95 1.42.95 2.83 0 4.25m8.72 0c.92.75 2.54.81 3.58-.32 1.01-1.11.92-2.83-.2-3.81-1.13-.99-2.66-.76-3.38-.12.95 1.42.95 2.83 0 4.25M7.07 9.87c-.99-.79-2.62-.77-3.61.36-.96 1.08-.89 2.73.18 3.72 1.16 1.08 2.71.8 3.43.17-.95-1.42-.95-2.83 0-4.25m4.91-.59c.29-.16.56-.35.85-.46 1.22-.49 2.38-.35 3.45.42.07.05.1.06.18 0 .61-.47 1.32-.71 2.09-.71 1.8 0 3.18 1.32 3.42 2.92.29 1.96-1.02 3.72-2.97 3.98-.91.12-1.74-.1-2.49-.63-.04-.03-.09-.06-.13-.09-1.46 1.02-2.91 1.02-4.39 0-.62.49-1.35.76-2.17.76-.81 0-1.54-.26-2.15-.75-.31.17-.59.35-.89.48-2.1.87-4.45-.48-4.75-2.73a3.46 3.46 0 0 1 2.92-3.89c.95-.14 1.83.08 2.6.66.07.05.11.06.19 0 .62-.47 1.33-.71 2.1-.7.78 0 1.49.25 2.11.73.02.01.04.03.03.02" fill="currentColor"></path></svg>