<svg width="180" height="50" viewBox="0 0 180 50" fill="none" xmlns="http://www.w3.org/2000/svg">
<path d="M5.54219 19.5999H8.70219V28.6699C8.70219 32.9299 6.90219 34.9699 2.66219 35.3599L2.24219 32.5099C4.57219 32.1999 5.53219 31.2799 5.53219 28.7199V19.5999H5.54219ZM28.3022 19.5999H31.4922V25.1099C31.4922 29.1299 29.5822 30.5499 25.5622 30.5499H22.9222C22.5022 33.6899 19.9922 35.4399 15.4222 35.4399C14.8522 35.4399 14.2222 35.4099 13.5422 35.3599L13.3622 32.4899C17.1022 32.7499 19.1922 32.0699 19.6822 30.5599H18.0922C13.9322 30.5599 11.7722 28.3599 11.7722 25.2299C11.7722 22.0999 14.1022 19.3199 17.6022 19.3199C21.1022 19.3199 23.0122 21.6499 23.0122 24.7799V27.7099H25.6522C27.7422 27.7099 28.3222 26.9999 28.3222 24.6999V19.5999H28.3022ZM19.8322 25.1699C19.8322 23.2899 19.0222 22.2399 17.4822 22.2399C15.9422 22.2399 14.9422 23.3899 14.9422 24.9799C14.9422 26.7299 15.9322 27.6999 18.2122 27.6999H19.8322V25.1599V25.1699ZM27.3822 16.5699C28.3722 16.5699 29.0522 15.8399 29.0522 14.8499C29.0522 13.8599 28.3722 13.1799 27.3822 13.1799C26.3922 13.1799 25.6822 13.8899 25.6822 14.8499C25.6822 15.8099 26.3922 16.5699 27.3822 16.5699ZM31.7222 13.1699C30.7322 13.1699 30.0022 13.8799 30.0022 14.8399C30.0022 15.7999 30.7322 16.5599 31.7222 16.5599C32.6622 16.5599 33.3722 15.8299 33.3722 14.8399C33.3722 13.8499 32.6622 13.1699 31.7222 13.1699ZM61.6422 24.8799C61.6422 28.3799 59.4422 30.5499 55.1122 30.5499H46.0422C45.6222 33.6899 43.1122 35.4399 38.5422 35.4399C37.9722 35.4399 37.3422 35.4099 36.6622 35.3599L36.4822 32.4899C40.2222 32.7499 42.3122 32.0699 42.8022 30.5599H41.2122C37.0522 30.5599 34.8922 28.3599 34.8922 25.2299C34.8922 22.0999 37.2222 19.3199 40.7222 19.3199C44.2222 19.3199 46.1322 21.6499 46.1322 24.7799V27.7099H50.5722C50.0722 26.9499 49.8122 25.9899 49.8122 24.8399C49.8122 21.5699 52.4022 19.3299 55.9822 19.3299C59.5622 19.3299 61.6522 21.8099 61.6522 24.8999L61.6422 24.8799ZM42.9522 25.1699C42.9522 23.2899 42.1422 22.2399 40.6022 22.2399C39.0622 22.2399 38.0622 23.3899 38.0622 24.9799C38.0622 26.7299 39.0522 27.6999 41.3322 27.6999H42.9522V25.1599V25.1699ZM58.4222 24.9599C58.4222 23.3099 57.3722 22.2399 55.7522 22.2399C54.1322 22.2399 52.9822 23.2299 52.9822 25.1399C52.9822 26.1299 53.3522 27.0199 53.8422 27.6999H55.4322C57.7822 27.6999 58.4122 26.3399 58.4122 24.9599H58.4222ZM77.7322 19.8599C78.7522 19.8599 79.3822 19.1299 79.3822 18.1399C79.3822 17.1499 78.7522 16.4699 77.7322 16.4699C76.7122 16.4699 76.0622 17.1799 76.0622 18.1399C76.0622 19.0999 76.7422 19.8599 77.7322 19.8599ZM122.032 19.5999V25.1099C122.032 29.2099 120.122 30.5499 116.252 30.5499H114.262C114.702 31.2799 114.972 32.0399 114.972 32.8499C114.972 35.1999 113.112 36.8199 109.852 36.8199C105.752 36.8199 104.212 34.8299 104.212 31.5699V30.5499H99.4322C98.3122 31.6499 96.6322 32.2199 94.4422 32.2199H91.7722C91.2522 31.7199 90.7522 31.1699 90.3322 30.5499H84.7122C83.9522 33.6899 81.2922 35.1499 77.6322 35.1499C72.7722 35.1499 70.2622 32.4099 70.2622 28.8799C70.2622 27.4399 70.6322 25.8499 71.4922 23.9399L74.1822 24.8499C73.6022 26.3399 73.3722 27.3899 73.3722 28.4599C73.3722 30.9199 74.9922 32.2199 77.6622 32.2199C80.3322 32.2199 81.7922 31.2499 81.7922 28.1199V21.5099H84.9522V27.6999H89.2122C89.1322 27.3299 89.1122 26.9399 89.1122 26.5499C89.1122 23.1799 91.5722 20.5899 95.3322 20.5899C98.8622 20.5899 100.952 22.9699 100.952 26.4399C100.952 26.8799 100.922 27.2999 100.852 27.6899H104.222V25.7299C104.222 22.0999 106.082 19.4299 109.682 19.4299C113.282 19.4299 114.852 21.8299 114.852 24.5299C114.852 25.6799 114.512 26.7999 113.942 27.6899H116.272C118.262 27.6899 118.862 27.0599 118.862 24.6799V19.5799H122.052L122.032 19.5999ZM97.7522 26.3399C97.7522 24.7699 96.8422 23.5199 95.1122 23.5199C93.3822 23.5199 92.2922 24.7499 92.2922 26.6299C92.2922 27.6199 92.6822 28.6899 93.2022 29.3999H94.6122C96.8622 29.3999 97.7522 27.9899 97.7522 26.3399ZM107.372 27.6999H108.782C110.532 27.6999 111.682 26.6499 111.682 24.7999C111.682 23.4699 110.972 22.3699 109.542 22.3699C108.212 22.3699 107.372 23.3599 107.372 25.3499V27.6999ZM111.792 32.2499C111.792 31.7299 111.612 31.1299 111.222 30.5499H107.382V31.3099C107.382 33.0599 108.062 33.8999 109.762 33.8999C111.332 33.8999 111.802 33.1399 111.802 32.2499H111.792ZM119.392 32.6699C118.402 32.6699 117.722 33.3999 117.722 34.3899C117.722 35.3799 118.402 36.0599 119.392 36.0599C120.382 36.0599 121.042 35.3499 121.042 34.3899C121.042 33.4299 120.412 32.6699 119.392 32.6699Z" fill="white"/>
<path d="M131.697 7.17992C131.967 7.26992 132.237 7.36992 132.507 7.45992C139.557 9.82992 146.617 12.1999 153.667 14.5599C154.067 14.6899 154.337 14.9399 154.437 15.3499C154.467 15.4499 154.467 15.5599 154.467 15.6699C154.467 17.3399 154.467 19.0099 154.467 20.6699C154.467 20.6999 154.467 20.7399 154.467 20.7699C154.447 20.9199 154.337 20.9999 154.187 20.9599C154.157 20.9599 154.127 20.9399 154.097 20.9299C148.267 19.0199 142.437 17.1099 136.597 15.2099C136.487 15.1699 136.397 15.1099 136.337 15.0099C134.727 12.5399 133.127 10.0599 131.517 7.58992C131.497 7.56992 131.487 7.53992 131.467 7.51992C131.387 7.38992 131.417 7.28992 131.537 7.19992C131.547 7.18992 131.567 7.17992 131.577 7.16992C131.617 7.16992 131.657 7.16992 131.687 7.16992L131.697 7.17992ZM178.717 7.17992C178.717 7.17992 178.647 7.20992 178.617 7.22992C172.377 9.32992 166.137 11.4199 159.897 13.5199C158.837 13.8799 157.777 14.2299 156.707 14.5899C156.437 14.6799 156.237 14.8399 156.087 15.0799C155.977 15.2599 155.937 15.4499 155.937 15.6599C155.937 17.3399 155.937 19.0099 155.937 20.6899C155.937 20.7199 155.937 20.7599 155.937 20.7899C155.947 20.9299 156.057 21.0099 156.197 20.9799C156.237 20.9799 156.277 20.9599 156.317 20.9399C162.147 19.0299 167.977 17.1199 173.817 15.2199C173.937 15.1799 174.007 15.1199 174.077 15.0199C175.687 12.5499 177.287 10.0699 178.897 7.59992C178.917 7.55992 178.947 7.52992 178.967 7.48992C179.007 7.39992 178.987 7.29992 178.907 7.23992C178.887 7.21992 178.857 7.19992 178.827 7.18992C178.787 7.18992 178.747 7.18992 178.717 7.18992V7.17992ZM154.467 26.0299C154.467 25.9099 154.467 25.7899 154.437 25.6799C154.337 25.2799 154.077 25.0299 153.687 24.8999C149.237 23.4099 144.797 21.9099 140.347 20.4199C140.317 20.4099 140.287 20.3999 140.257 20.3899C140.167 20.3699 140.087 20.3899 140.027 20.4699C139.977 20.5399 139.967 20.6199 140.007 20.6899C140.027 20.7299 140.047 20.7599 140.077 20.7999C141.657 23.2299 143.227 25.6699 144.807 28.1099C144.877 28.2199 144.957 28.2799 145.077 28.3199C148.087 29.2999 151.087 30.2799 154.097 31.2699C154.137 31.2799 154.187 31.2999 154.237 31.3099C154.367 31.3299 154.457 31.2599 154.477 31.1299C154.477 31.0799 154.477 31.0299 154.477 30.9699C154.477 30.1399 154.477 29.3099 154.477 28.4799C154.477 27.6599 154.477 26.8499 154.477 26.0299H154.467ZM155.947 30.9599C155.947 30.9599 155.947 31.0399 155.947 31.0899C155.957 31.2499 156.057 31.3299 156.217 31.2999C156.247 31.2999 156.277 31.2799 156.307 31.2699C159.327 30.2799 162.347 29.2899 165.367 28.3099C165.467 28.2799 165.537 28.2199 165.597 28.1299C167.177 25.6799 168.767 23.2299 170.347 20.7899C170.367 20.7499 170.397 20.7199 170.407 20.6799C170.467 20.5299 170.337 20.3599 170.177 20.3899C170.127 20.3899 170.087 20.4199 170.047 20.4299C167.197 21.3899 164.347 22.3399 161.497 23.2999C159.907 23.8299 158.317 24.3699 156.737 24.8999C156.567 24.9599 156.417 25.0299 156.287 25.1599C156.057 25.3799 155.957 25.6499 155.957 25.9699C155.957 26.7999 155.957 27.6299 155.957 28.4599C155.957 29.2899 155.957 30.1299 155.957 30.9599H155.947ZM154.467 35.9999C154.467 35.8799 154.467 35.7599 154.437 35.6499C154.337 35.2499 154.067 34.9899 153.677 34.8599C152.057 34.3199 150.447 33.7799 148.827 33.2399C148.727 33.2099 148.627 33.1699 148.517 33.1399C148.427 33.1099 148.357 33.1399 148.297 33.2099C148.237 33.2799 148.227 33.3599 148.267 33.4499C148.287 33.4799 148.307 33.5099 148.327 33.5499C150.307 36.5999 152.287 39.6499 154.267 42.6999C154.287 42.7199 154.297 42.7499 154.317 42.7699C154.337 42.7899 154.377 42.8099 154.397 42.7999C154.417 42.7999 154.447 42.7599 154.447 42.7299C154.447 42.6899 154.447 42.6499 154.447 42.5999C154.447 41.4899 154.447 40.3799 154.447 39.2599C154.447 38.1699 154.447 37.0799 154.447 35.9899L154.467 35.9999ZM155.947 42.5999C155.947 42.5999 155.947 42.6999 155.947 42.7399C155.957 42.7999 156.017 42.8199 156.067 42.7799C156.097 42.7499 156.117 42.7099 156.137 42.6799C158.117 39.6299 160.097 36.5899 162.067 33.5399C162.087 33.4999 162.117 33.4699 162.137 33.4299C162.167 33.3499 162.157 33.2699 162.107 33.2099C162.047 33.1399 161.977 33.1199 161.887 33.1399C161.847 33.1399 161.817 33.1599 161.777 33.1799C161.117 33.3999 160.457 33.6199 159.797 33.8399C158.767 34.1799 157.737 34.5299 156.707 34.8799C156.497 34.9499 156.317 35.0699 156.177 35.2399C156.007 35.4499 155.947 35.6899 155.947 35.9599C155.947 37.0599 155.947 38.1599 155.947 39.2499C155.947 40.3699 155.947 41.4799 155.947 42.5999Z" fill="white"/>
</svg>
