<?xml version="1.0" encoding="UTF-8"?>
<svg id="Layer_1" data-name="Layer 1" xmlns="http://www.w3.org/2000/svg" viewBox="0 0 180 32">
  <path d="M7.38,10.46h3.25v9.31c0,4.37-1.85,6.47-6.2,6.87l-.43-2.92c2.39-.32,3.38-1.26,3.38-3.89V10.46Zm23.37,0h3.27v5.66c0,4.13-1.96,5.58-6.09,5.58h-2.71c-.43,3.22-3.01,5.02-7.7,5.02-.59,0-1.23-.03-1.93-.08l-.19-2.95c3.84,.27,5.98-.43,6.49-1.99h-1.64c-4.27,0-6.49-2.25-6.49-5.47s2.39-6.06,5.98-6.06,5.55,2.39,5.55,5.61v3.01h2.71c2.15,0,2.74-.72,2.74-3.09v-5.23Zm-8.69,5.72c0-1.93-.83-3.01-2.41-3.01s-2.6,1.18-2.6,2.82c0,1.8,1.02,2.79,3.35,2.79h1.66v-2.6Zm7.75-8.83c1.02,0,1.72-.75,1.72-1.77s-.7-1.72-1.72-1.72-1.74,.72-1.74,1.72,.72,1.77,1.74,1.77Zm4.45-3.49c-1.02,0-1.77,.72-1.77,1.72s.75,1.77,1.77,1.77c.97,0,1.69-.75,1.69-1.77s-.72-1.72-1.69-1.72Zm30.72,12.02c0,3.6-2.25,5.82-6.71,5.82h-9.31c-.43,3.22-3.01,5.02-7.7,5.02-.59,0-1.23-.03-1.93-.08l-.19-2.95c3.84,.27,5.98-.43,6.49-1.99h-1.64c-4.27,0-6.49-2.25-6.49-5.47s2.39-6.06,5.98-6.06,5.55,2.39,5.55,5.61v3.01h4.56c-.51-.78-.78-1.77-.78-2.95,0-3.35,2.66-5.66,6.33-5.66s5.82,2.55,5.82,5.72Zm-19.18,.3c0-1.93-.83-3.01-2.41-3.01s-2.6,1.18-2.6,2.82c0,1.8,1.02,2.79,3.35,2.79h1.66v-2.6Zm15.88-.21c0-1.69-1.07-2.79-2.74-2.79s-2.84,1.02-2.84,2.98c0,1.02,.38,1.93,.89,2.63h1.64c2.41,0,3.06-1.4,3.06-2.82Zm19.83-5.23c1.05,0,1.69-.75,1.69-1.77s-.64-1.72-1.69-1.72-1.72,.72-1.72,1.72,.7,1.77,1.72,1.77Zm45.48-.27v5.66c0,4.21-1.96,5.58-5.93,5.58,0,0,0,0,0,0h-2.04c.46,.75,.72,1.53,.72,2.36,0,2.41-1.91,4.08-5.26,4.08-4.21,0-5.8-2.04-5.8-5.39v-1.05h-4.91c-1.15,1.13-2.87,1.72-5.12,1.72h-2.74c-.54-.51-1.05-1.07-1.48-1.72h-5.77c-.78,3.22-3.52,4.72-7.27,4.72-4.99,0-7.57-2.82-7.57-6.44,0-1.48,.38-3.11,1.26-5.07l2.76,.94c-.59,1.53-.83,2.6-.83,3.7,0,2.52,1.66,3.86,4.4,3.86s4.24-.99,4.24-4.21v-6.79h3.25v6.36h4.37c-.08-.38-.11-.78-.11-1.18,0-3.46,2.52-6.12,6.39-6.12,3.62,0,5.77,2.44,5.77,6.01,0,.46-.03,.89-.11,1.29h3.46v-2.01c0-3.73,1.9-6.47,5.61-6.47s5.31,2.47,5.31,5.23c0,1.18-.35,2.33-.94,3.25h2.39c2.04,0,2.66-.64,2.66-3.09v-5.23h3.27Zm-24.93,6.92c0-1.61-.94-2.9-2.71-2.9s-2.9,1.26-2.9,3.19c0,1.02,.4,2.12,.94,2.84h1.45c2.31,0,3.22-1.45,3.22-3.14Zm9.87,1.4h1.45c1.8,0,2.98-1.07,2.98-2.98,0-1.37-.72-2.5-2.2-2.5-1.37,0-2.23,1.02-2.23,3.06v2.41Zm4.53,4.67c0-.54-.19-1.15-.59-1.74h-3.94v.78c0,1.8,.7,2.66,2.44,2.66,1.61,0,2.09-.78,2.09-1.69Zm7.81,.43c-1.02,0-1.72,.75-1.72,1.77s.7,1.72,1.72,1.72,1.69-.72,1.69-1.72-.64-1.77-1.69-1.77ZM136.6,1.07c.23,.08,.45,.16,.68,.24,5.91,1.99,11.82,3.97,17.73,5.95,.33,.11,.56,.32,.65,.66,.02,.09,.03,.18,.03,.27,0,1.4,0,2.8,0,4.19,0,.03,0,.06,0,.08-.02,.13-.11,.19-.24,.16-.03,0-.05-.02-.08-.03-4.89-1.6-9.78-3.2-14.66-4.8-.1-.03-.16-.08-.22-.17-1.35-2.07-2.69-4.14-4.04-6.22-.01-.02-.03-.04-.04-.06-.06-.11-.04-.19,.06-.27,.01,0,.03-.02,.04-.03,.03,0,.06,0,.09,0Zm39.41,0s-.05,.03-.08,.04c-5.23,1.76-10.46,3.51-15.69,5.27-.89,.3-1.78,.6-2.67,.9-.22,.07-.4,.21-.52,.41-.09,.15-.12,.31-.12,.49,0,1.41,0,2.81,0,4.22,0,.03,0,.06,0,.08,.01,.11,.1,.18,.22,.16,.03,0,.07-.02,.1-.03,4.89-1.6,9.78-3.2,14.66-4.8,.1-.03,.16-.08,.22-.17,1.35-2.07,2.69-4.14,4.04-6.22,.02-.03,.04-.06,.05-.09,.04-.08,.02-.16-.05-.21-.02-.02-.05-.03-.07-.05-.03,0-.06,0-.09,0Zm-20.32,15.8c0-.1,0-.2-.03-.29-.08-.33-.3-.54-.63-.65-3.73-1.25-7.45-2.5-11.18-3.75-.03,0-.05-.02-.08-.03-.08-.02-.14,0-.19,.07-.04,.06-.05,.12-.02,.19,.02,.03,.04,.06,.06,.09,1.32,2.04,2.64,4.08,3.96,6.12,.06,.09,.13,.14,.23,.18,2.52,.82,5.04,1.65,7.56,2.47,.04,.01,.08,.03,.11,.03,.11,.01,.18-.05,.2-.15,0-.04,0-.09,0-.13,0-.69,0-1.39,0-2.08,0-.68,0-1.37,0-2.05Zm1.24,4.13s0,.07,0,.11c0,.13,.09,.2,.22,.18,.03,0,.05-.02,.08-.02,2.53-.83,5.06-1.66,7.59-2.48,.08-.03,.14-.07,.19-.15,1.33-2.05,2.66-4.1,3.98-6.15,.02-.03,.04-.06,.05-.09,.05-.13-.06-.27-.19-.24-.04,0-.08,.02-.11,.03-2.39,.8-4.78,1.6-7.17,2.41-1.33,.45-2.66,.9-3.99,1.34-.14,.05-.27,.11-.38,.22-.19,.19-.28,.41-.28,.68,0,.7,0,1.39,0,2.09,0,.7,0,1.4,0,2.1Zm-1.24,4.23c0-.1,0-.2-.03-.29-.09-.34-.31-.55-.63-.66-1.35-.45-2.71-.91-4.06-1.36-.09-.03-.17-.06-.26-.08-.07-.02-.13,0-.18,.06-.05,.06-.06,.13-.02,.2,.01,.03,.03,.05,.05,.08,1.66,2.56,3.32,5.11,4.98,7.67,.01,.02,.02,.04,.04,.06,.02,.02,.05,.03,.07,.03,.02,0,.04-.04,.05-.06,0-.03,0-.07,0-.11,0-.93,0-1.86,0-2.8,0-.91,0-1.82,0-2.74Zm1.24,5.53s0,.08,0,.12c0,.05,.06,.07,.1,.03,.03-.02,.04-.06,.06-.09,1.66-2.55,3.32-5.11,4.97-7.66,.02-.03,.04-.06,.05-.09,.03-.07,.02-.13-.03-.19-.05-.05-.11-.08-.18-.06-.03,0-.06,.02-.09,.03-.55,.18-1.11,.37-1.66,.55-.86,.29-1.73,.58-2.59,.87-.18,.06-.33,.16-.44,.3-.14,.18-.2,.38-.2,.61,0,.92,0,1.84,0,2.76,0,.94,0,1.87,0,2.81Z"/>
</svg>