<svg xmlns="http://www.w3.org/2000/svg" xmlns:xlink="http://www.w3.org/1999/xlink" viewBox="0 0 400 250" width="400" height="250" preserveAspectRatio="xMidYMid meet" style="width: 100%; height: 100%; transform: translate3d(0px, 0px, 0px); content-visibility: visible;"><defs><clipPath id="__lottie_element_2"><rect width="400" height="250" x="0" y="0"></rect></clipPath><clipPath id="__lottie_element_4"><path d="M0,0 L842,0 L842,596 L0,596z"></path></clipPath></defs><g clip-path="url(#__lottie_element_2)"><g clip-path="url(#__lottie_element_4)" transform="matrix(0.5201900005340576,0,0,0.5201900005340576,-18.999984741210938,-30.016616821289062)" opacity="1" style="display: block;"><g transform="matrix(1,0,0,1,81.66799926757812,70.156005859375)" opacity="1" style="display: block;"><g opacity="1" transform="matrix(1,0,0,1,184.63800048828125,145.43899536132812)"><path fill="rgb(172,172,170)" fill-opacity="1" d=" M64.82599639892578,28.356000900268555 C64.82599639892578,28.356000900268555 -53.26599884033203,17.70400047302246 -53.26599884033203,17.70400047302246 C-53.26599884033203,17.70400047302246 -64.82499694824219,-28.356000900268555 -64.82499694824219,-28.356000900268555 C-64.82499694824219,-28.356000900268555 18.738000869750977,-25.775999069213867 18.738000869750977,-25.775999069213867 C18.738000869750977,-25.775999069213867 54.6879997253418,2.625 54.6879997253418,2.625 C54.6879997253418,2.625 64.82599639892578,28.356000900268555 64.82599639892578,28.356000900268555z M-50.077999114990234,13.975000381469727 C-50.077999114990234,13.975000381469727 58.72800064086914,23.790000915527344 58.72800064086914,23.790000915527344 C58.72800064086914,23.790000915527344 51.36199951171875,5.09499979019165 51.36199951171875,5.09499979019165 C51.36199951171875,5.09499979019165 17.29400062561035,-21.819000244140625 17.29400062561035,-21.819000244140625 C17.29400062561035,-21.819000244140625 -59.65700149536133,-24.194000244140625 -59.65700149536133,-24.194000244140625 C-59.65700149536133,-24.194000244140625 -50.077999114990234,13.975000381469727 -50.077999114990234,13.975000381469727z"></path></g><g opacity="1" transform="matrix(1,0,0,1,157.25999450683594,178.22500610351562)"><path fill="rgb(199,201,198)" fill-opacity="1" d=" M28.59000015258789,-10.164999961853027 C13.170000076293945,-2.694999933242798 -2.0299999713897705,5.855000019073486 -17.1200008392334,15.085000038146973 C-17.1200008392334,15.085000038146973 -28.59000015258789,-8.364999771118164 -28.59000015258789,-8.364999771118164 C-28.59000015258789,-8.364999771118164 -25.889999389648438,-15.085000038146973 -25.889999389648438,-15.085000038146973 C-25.889999389648438,-15.085000038146973 28.59000015258789,-10.164999961853027 28.59000015258789,-10.164999961853027z"></path></g><g opacity="1" transform="matrix(1,0,0,1,418.1910095214844,146.73699951171875)"><path fill="rgb(172,172,170)" fill-opacity="1" d=" M19.479000091552734,10.95300006866455 C16.198999404907227,11.003000259399414 12.909000396728516,11.093000411987305 9.628999710083008,11.213000297546387 C8.95300006866455,6.980999946594238 6.489999771118164,3.1019999980926514 3.0290000438690186,0.6729999780654907 C-10.869000434875488,13.777999877929688 -19.47800064086914,-9.145999908447266 -6.710999965667725,-13.567999839782715 C-0.8059999942779541,-13.777999877929688 8.604000091552734,-9.656000137329102 5.439000129699707,-2.617000102996826 C11.937999725341797,-0.6029999852180481 17.233999252319336,4.48199987411499 19.479000091552734,10.95300006866455z"></path></g><g opacity="1" transform="matrix(1,0,0,1,344.68499755859375,350.7049865722656)"><path fill="rgb(172,172,170)" fill-opacity="1" d=" M32.814998626708984,37.314998626708984 C32.814998626708984,37.314998626708984 -46.55500030517578,10.125 -46.55500030517578,10.125 C-39.39500045776367,0.7250000238418579 -30.905000686645508,-7.894999980926514 -21.174999237060547,-15.454999923706055 C6.954999923706055,-37.314998626708984 46.55500030517578,-18.084999084472656 32.814998626708984,37.314998626708984z"></path></g><g opacity="1" transform="matrix(1,0,0,1,320.1700134277344,390.8500061035156)"><path fill="rgb(172,172,170)" fill-opacity="1" d=" M48.369998931884766,5.539999961853027 C40.540000915527344,38.66999816894531 17.030000686645508,64.63999938964844 -4.150000095367432,63.54999923706055 C-6.309999942779541,63.439998626708984 -8.359000205993652,63.04999923706055 -10.289999961853027,62.400001525878906 C-10.289999961853027,62.400001525878906 -11.550000190734863,61.95000076293945 -11.550000190734863,61.95000076293945 C-11.550000190734863,61.95000076293945 -29.190000534057617,55.66999816894531 -29.190000534057617,55.66999816894531 C-29.190000534057617,55.66999816894531 -32.880001068115234,54.36000061035156 -32.880001068115234,54.36000061035156 C-48.349998474121094,47.279998779296875 -55.34000015258789,22.850000381469727 -48.630001068115234,-5.550000190734863 C-40.79999923706055,-38.66999816894531 -17.290000915527344,-64.63999938964844 3.8910000324249268,-63.54999923706055 C5.690000057220459,-63.459999084472656 7.409999847412109,-63.16999816894531 9.050000190734863,-62.709999084472656 C9.050000190734863,-62.709999084472656 9.130000114440918,-62.68000030517578 9.130000114440918,-62.68000030517578 C9.130000114440918,-62.68000030517578 11.649999618530273,-61.79999923706055 11.649999618530273,-61.79999923706055 C11.649999618530273,-61.79999923706055 30.790000915527344,-55.11000061035156 30.790000915527344,-55.11000061035156 C30.790000915527344,-55.11000061035156 30.8799991607666,-55.08000183105469 30.8799991607666,-55.08000183105469 C47.56999969482422,-49.08000183105469 55.34000015258789,-23.899999618530273 48.369998931884766,5.539999961853027z"></path></g><g opacity="1" transform="matrix(1,0,0,1,330.20098876953125,394.4230041503906)"><path fill="rgb(199,201,198)" fill-opacity="1" d=" M38.34400177001953,1.9700000286102295 C46.17399978637695,-31.15399932861328 35.35499954223633,-58.887001037597656 14.178000450134277,-59.974998474121094 C-6.998000144958496,-61.0629997253418 -30.51300048828125,-35.09400177001953 -38.34400177001953,-1.9700000286102295 C-46.17399978637695,31.15399932861328 -35.35499954223633,58.887001037597656 -14.178000450134277,59.974998474121094 C6.999000072479248,61.0629997253418 30.513999938964844,35.09400177001953 38.34400177001953,1.9700000286102295z"></path></g><g opacity="1" transform="matrix(1,0,0,1,330.20098876953125,394.4230041503906)"><path fill="rgb(227,228,226)" fill-opacity="1" d=" M25.527000427246094,1.3109999895095825 C30.739999771118164,-20.740999221801758 23.53700065612793,-39.202999114990234 9.439000129699707,-39.928001403808594 C-4.658999919891357,-40.652000427246094 -20.31399917602539,-23.363000869750977 -25.527000427246094,-1.312000036239624 C-30.739999771118164,20.739999771118164 -23.53700065612793,39.202999114990234 -9.439000129699707,39.926998138427734 C4.658999919891357,40.652000427246094 20.31399917602539,23.363000869750977 25.527000427246094,1.3109999895095825z"></path></g><g opacity="1" transform="matrix(1,0,0,1,560.3400268554688,102.75499725341797)"><path fill="rgb(199,201,198)" fill-opacity="1" d=" M99.31999969482422,102.50499725341797 C87.11100006103516,87.91000366210938 64.90599822998047,96.04499816894531 48.349998474121094,95.62300109863281 C23.340999603271484,87.14700317382812 -2.2360000610351562,80.37000274658203 -28.170000076293945,75.40499877929688 C-28.68000030517578,72.99500274658203 -29.209999084472656,70.59500122070312 -29.770000457763672,68.19499969482422 C-31.170000076293945,67.88500213623047 -32.41999816894531,67.18499755859375 -33.400001525878906,66.20500183105469 C-33.400001525878906,66.20500183105469 -33.40999984741211,66.20500183105469 -33.40999984741211,66.20500183105469 C-36.53799819946289,63.374000549316406 -36.26900100708008,57.632999420166016 -32.91999816894531,55.10499954223633 C-46.6349983215332,0.6549999713897705 -69.2030029296875,-53.38800048828125 -99.31999969482422,-102.50499725341797 C-79.29499816894531,-102.19200134277344 -59.768001556396484,-97.84200286865234 -39.810001373291016,-100.0250015258789 C-25.100000381469727,-100.0250015258789 -11.289999961853027,-96.21499633789062 0.699999988079071,-89.51499938964844 C14.979999542236328,-86.375 29.149999618530273,-82.68499755859375 43.16999816894531,-78.44499969482422 C72.14399719238281,-20.483999252319336 91.98100280761719,39.82400131225586 99.31999969482422,102.50499725341797z"></path></g><g opacity="1" transform="matrix(1,0,0,1,333.93798828125,258.6000061035156)"><path fill="rgb(227,228,226)" fill-opacity="1" d=" M332.77899169921875,-23.27400016784668 C332.77899169921875,-23.27400016784668 331.4880065917969,-26.115999221801758 331.4880065917969,-26.115999221801758 C331.5140075683594,-26.99799919128418 331.52899169921875,-27.881999969482422 331.531005859375,-28.770000457763672 C333.3909912109375,-70.0199966430664 304.58099365234375,-63.189998626708984 274.7510070800781,-61.220001220703125 C236.76100158691406,-74.41000366210938 197.1510009765625,-79.81999969482422 160.00100708007812,-94.56999969482422 C150.4409942626953,-98.37000274658203 140.31100463867188,-100.52999877929688 130.031005859375,-100.80999755859375 C108.74099731445312,-101.38999938964844 87.39099884033203,-100.79000091552734 66.09100341796875,-98.98999786376953 C-88.73899841308594,-166.72000122070312 -198.87899780273438,-59.099998474121094 -322.65899658203125,21.34000015258789 C-326.3190002441406,36.369998931884766 -326.04901123046875,53.25 -321.8389892578125,68.20999908447266 C-324.0889892578125,69.19000244140625 -326.2980041503906,70.26000213623047 -328.4580078125,71.41999816894531 C-329.01800537109375,71.72000122070312 -329.5679931640625,72.0199966430664 -330.1180114746094,72.33000183105469 C-330.52801513671875,72.55000305175781 -330.89898681640625,72.83000183105469 -331.239013671875,73.12999725341797 C-332.3089904785156,74.08000183105469 -333.02801513671875,75.38999938964844 -333.24798583984375,76.83000183105469 C-333.24798583984375,76.83000183105469 -333.25799560546875,76.91000366210938 -333.25799560546875,76.91000366210938 C-333.68798828125,79.7300033569336 -332.14898681640625,82.48999786376953 -329.52899169921875,83.61000061035156 C-329.5190124511719,83.62000274658203 -329.4989929199219,83.62000274658203 -329.489013671875,83.62000274658203 C-327.65899658203125,84.4000015258789 -325.8280029296875,85.16999816894531 -323.99798583984375,85.94000244140625 C-322.1679992675781,86.70999908447266 -320.3380126953125,87.47000122070312 -318.49798583984375,88.2300033569336 C-316.4280090332031,89.08999633789062 -314.3590087890625,89.94000244140625 -312.28900146484375,90.79000091552734 C-305.6390075683594,93.5 -298.968994140625,96.16000366210938 -292.27899169921875,98.76000213623047 C-292.27899169921875,98.76000213623047 -285.427001953125,105.47200012207031 -285.427001953125,105.47200012207031 C-282.52899169921875,108.30999755859375 -279.1059875488281,110.55999755859375 -275.34100341796875,112.06700134277344 C-239.8350067138672,126.27899932861328 -203.73899841308594,138.9239959716797 -167.1479949951172,150.02000427246094 C-115.83799743652344,165.55999755859375 -118.0790023803711,166.72000122070312 -77.2490005493164,158.36000061035156 C-67.45899963378906,156.35000610351562 -59.41899871826172,149.35000610351562 -56.12900161743164,139.9199981689453 C-47.659000396728516,115.66000366210938 -32.13800048828125,93.5199966430664 -10.428000450134277,76.6500015258789 C17.70199966430664,54.790000915527344 57.30099868774414,74.0199966430664 43.56100082397461,129.4199981689453 C140.2010040283203,101.5199966430664 233.75100708007812,62.369998931884766 321.781005859375,12.949999809265137 C326.4419860839844,3.5250000953674316 329.4679870605469,-6.460999965667725 330.77899169921875,-16.93000030517578 C330.77899169921875,-16.93000030517578 331.4519958496094,-17.489999771118164 331.4519958496094,-17.489999771118164 C333.14599609375,-18.899999618530273 333.6889953613281,-21.267000198364258 332.77899169921875,-23.27400016784668z"></path></g><g opacity="1" transform="matrix(1,0,0,1,139.5540008544922,368.08099365234375)"><path fill="rgb(172,172,170)" fill-opacity="1" d=" M138.4759979248047,4.616000175476074 C115.12000274658203,11.394000053405762 91.66600036621094,17.483999252319336 68.0270004272461,22.940000534057617 C62.72600173950195,24.163000106811523 57.20199966430664,24.091999053955078 51.935001373291016,22.73200035095215 C-8.734000205993652,7.067999839782715 -68.28500366210938,-12.859999656677246 -126.16400146484375,-36.98400115966797 C-126.63400268554688,-38.39400100708008 -127.06400299072266,-39.82400131225586 -127.4540023803711,-41.27399826049805 C-130.26300048828125,-40.05099868774414 -133.0189971923828,-38.685001373291016 -135.69000244140625,-37.183998107910156 C-137.375,-36.23699951171875 -138.53599548339844,-34.57099914550781 -138.82000732421875,-32.659000396728516 C-138.82000732421875,-32.659000396728516 -138.83799743652344,-32.5359992980957 -138.83799743652344,-32.5359992980957 C-139.2550048828125,-29.722999572753906 -137.72300720214844,-26.975000381469727 -135.10499572753906,-25.86199951171875 C-76.5999984741211,-0.996999979019165 -16.31999969482422,19.62700080871582 45.10599899291992,35.80400085449219 C61.981998443603516,41.27399826049805 67.30500030517578,41.143001556396484 84.30599975585938,36.08599853515625 C101.28299713134766,31.930999755859375 118.14700317382812,27.468000411987305 134.968994140625,22.639999389648438 C136.97500610351562,22.065000534057617 138.4290008544922,20.35700035095215 138.75900268554688,18.297000885009766 C139.0959930419922,16.194000244140625 139.2550048828125,14.064000129699707 139.23599243164062,11.925999641418457 C139.2259979248047,9.47599983215332 138.9759979248047,7.026000022888184 138.4759979248047,4.616000175476074z"></path></g><g opacity="1" transform="matrix(1,0,0,1,175.66600036621094,252.97300720214844)"><path fill="rgb(172,172,170)" fill-opacity="1" d=" M132.83399963378906,-32.19900131225586 C85.11000061035156,-1.815000057220459 39.79899978637695,36.180999755859375 2.243000030517578,77.28500366210938 C-41.93000030517578,66.13400268554688 -85.5719985961914,52.68899917602539 -128.5019989013672,36.97999954223633 C-135.44000244140625,34.441001892089844 -137.3159942626953,25.4950008392334 -131.9929962158203,20.37299919128418 C-96.92400360107422,-13.375 -56.683998107910156,-44.17100143432617 -14.944000244140625,-69.2239990234375 C-5.077000141143799,-75.14600372314453 6.627999782562256,-77.28500366210938 17.950000762939453,-75.22200012207031 C56.62699890136719,-68.1729965209961 94.70800018310547,-57.62799835205078 131.66099548339844,-43.645999908447266 C136.6300048828125,-41.76599884033203 137.3159942626953,-35.051998138427734 132.83399963378906,-32.19900131225586z"></path></g><g opacity="1" transform="matrix(1,0,0,1,175.68800354003906,252.97300720214844)"><path fill="rgb(199,201,198)" fill-opacity="1" d=" M-67.03800201416016,-24.70599937438965 C-84.42400360107422,-11.354999542236328 -100.94999694824219,2.7070000171661377 -116.60099792480469,17.4060001373291 C-122.95999908447266,23.378000259399414 -120.73500061035156,34.000999450683594 -112.51399993896484,36.91899871826172 C-73.44499969482422,50.78900146484375 -33.801998138427734,62.790000915527344 6.271999835968018,72.90399932861328 C4.9120001792907715,74.35399627685547 3.562000036239624,75.81400299072266 2.2219998836517334,77.28399658203125 C-41.9370002746582,66.12799835205078 -85.61900329589844,52.68600082397461 -128.51800537109375,36.98400115966797 C-135.45599365234375,34.444000244140625 -137.32899475097656,25.496999740600586 -132.0050048828125,20.375 C-96.78399658203125,-13.505999565124512 -56.95199966430664,-44.01599884033203 -14.96500015258789,-69.21700286865234 C-5.09499979019165,-75.14099884033203 6.611999988555908,-77.28399658203125 17.93600082397461,-75.22100067138672 C56.645999908447266,-68.16799926757812 94.69400024414062,-57.62099838256836 131.65499877929688,-43.63800048828125 C136.60299682617188,-41.76599884033203 137.3300018310547,-35.064998626708984 132.86900329589844,-32.22100067138672 C131.6649932861328,-31.452999114990234 130.46299743652344,-30.680999755859375 129.26199340820312,-29.905000686645508 C88.74199676513672,-45.183998107910156 46.87300109863281,-56.345001220703125 4.3480000495910645,-63.28799819946289 C-3.5840001106262207,-64.58300018310547 -11.730999946594238,-62.91899871826172 -18.518999099731445,-58.617000579833984 C-35.0359992980957,-48.14899826049805 -51.22700119018555,-36.84700012207031 -67.03800201416016,-24.70599937438965z"></path></g><g opacity="1" transform="matrix(1,0,0,1,428.510009765625,271.42498779296875)"><path fill="rgb(172,172,170)" fill-opacity="1" d=" M73.88999938964844,49.025001525878906 C40.79999923706055,65.65499877929688 6.239999771118164,77.76499938964844 -28.950000762939453,85.45500183105469 C-35.529998779296875,35.85499954223633 -50.65999984741211,-13.0649995803833 -74.62999725341797,-59.025001525878906 C-54.04999923706055,-69.59500122070312 -32.880001068115234,-78.3949966430664 -11.329999923706055,-85.45500183105469 C18.25,-66.81500244140625 45.93000030517578,-44.39500045776367 70.97000122070312,-18.295000076293945 C73.66000366210938,4.09499979019165 74.62999725341797,26.604999542236328 73.88999938964844,49.025001525878906z"></path></g><g opacity="1" transform="matrix(1,0,0,1,619.9990234375,287.3240051269531)"><path fill="rgb(199,201,198)" fill-opacity="1" d=" M-27.83799934387207,-26.291000366210938 C-26.261999130249023,-26.57200050354004 -24.64299964904785,-26.726999282836914 -22.986000061035156,-26.726999282836914 C-7.833000183105469,-26.726999282836914 4.451000213623047,-14.444000244140625 4.451000213623047,0.7089999914169312 C4.451000213623047,14.795999526977539 -6.168000221252441,26.39699935913086 -19.836000442504883,27.959999084472656 C-16.13800048828125,35.94200134277344 -11.600000381469727,43.391998291015625 -6.4670000076293945,49.10599899291992 C13.517999649047852,42.01900100708008 27.836999893188477,22.95599937438965 27.836999893188477,0.5410000085830688 C27.836999893188477,-23.143999099731445 11.847999572753906,-43.08399963378906 -9.920999526977539,-49.106998443603516 C-18.224000930786133,-43.805999755859375 -24.61400032043457,-35.78300094604492 -27.83799934387207,-26.291000366210938z"></path></g><g opacity="1" transform="matrix(1,0,0,1,607.1430053710938,287.9410095214844)"><path fill="rgb(227,228,226)" fill-opacity="1" d=" M-6.979000091552734,27.3439998626709 C6.689000129699707,25.7810001373291 17.30699920654297,14.180000305175781 17.30699920654297,0.09300000220537186 C17.30699920654297,-15.0600004196167 5.0229997634887695,-27.343000411987305 -10.130000114440918,-27.343000411987305 C-11.786999702453613,-27.343000411987305 -13.406000137329102,-27.187999725341797 -14.982000350952148,-26.906999588012695 C-16.48200035095215,-22.489999771118164 -17.30699920654297,-17.76300048828125 -17.30699920654297,-12.83899974822998 C-17.30699920654297,-2.0810000896453857 -13.420999526977539,13.437999725341797 -6.979000091552734,27.3439998626709z"></path></g><g opacity="1" transform="matrix(1,0,0,1,464.3810119628906,282.38299560546875)"><path fill="rgb(172,172,170)" fill-opacity="1" d=" M151.56300354003906,5.183000087738037 C150.07200622558594,4.375 148.57699584960938,3.5759999752044678 147.0780029296875,2.7869999408721924 C144.76800537109375,-11.111000061035156 141.7949981689453,-24.89699935913086 138.15499877929688,-38.534000396728516 C137.47000122070312,-41.099998474121094 135.92100524902344,-43.362998962402344 133.77699279785156,-44.93199920654297 C117.56099700927734,-56.79199981689453 100.7229995727539,-67.38099670410156 83.21499633789062,-76.81500244140625 C80.66300201416016,-78.19000244140625 77.47599792480469,-77.19200134277344 76.1259994506836,-74.6259994506836 C75.10399627685547,-72.68199920654297 74.0979995727539,-70.73100280761719 73.10800170898438,-68.77300262451172 C73.10800170898438,-68.77300262451172 73.0979995727539,-68.77300262451172 73.0979995727539,-68.77300262451172 C68.58999633789062,-59.849998474121094 64.37200164794922,-50.81700134277344 60.487998962402344,-41.632999420166016 C60.487998962402344,-41.632999420166016 60.41999816894531,-41.680999755859375 60.41999816894531,-41.680999755859375 C56.08000183105469,-44.73400115966797 50.887001037597656,-46.3489990234375 45.582000732421875,-46.2760009765625 C39.31999969482422,-46.18899917602539 33.05699920654297,-45.970001220703125 26.79800033569336,-45.612998962402344 C6.052999973297119,-65.69200134277344 -16.048999786376953,-83.23699951171875 -39.97200012207031,-98.7229995727539 C-81.38700103759766,-85.92900085449219 -120.73100280761719,-67.0250015258789 -156.87399291992188,-42.46099853515625 C-162.11399841308594,-38.900001525878906 -162.92999267578125,-31.496000289916992 -158.58299255371094,-26.88800048828125 C-156.1999969482422,-24.36199951171875 -153.7899932861328,-21.868000030517578 -151.35699462890625,-19.409000396728516 C-145.83399963378906,-13.826000213623047 -138.2220001220703,-10.843000411987305 -130.3719940185547,-11.095999717712402 C-115.66400146484375,-11.569999694824219 -100.99299621582031,-12.786999702453613 -86.38200378417969,-14.741999626159668 C-75.85199737548828,14.791999816894531 -68.61199951171875,45.106998443603516 -64.61699676513672,75.98999786376953 C-63.81999969482422,82.1510009765625 -57.709999084472656,86.18199920654297 -51.72100067138672,84.53199768066406 C-16.134000778198242,74.72899627685547 18.69700050354004,61.79499816894531 52.12799835205078,45.926998138427734 C64.3949966430664,53.56800079345703 107.5739974975586,80.46499633789062 130.7209930419922,94.88200378417969 C136.88699340820312,98.72200012207031 144.9929962158203,95.56400299072266 146.97900390625,88.57599639892578 C152.83999633789062,67.94300079345703 157.66400146484375,47.03200149536133 161.44000244140625,25.92300033569336 C162.9290008544922,17.599000930786133 158.9980010986328,9.211000442504883 151.56300354003906,5.183000087738037z M64.83899688720703,-40.52299880981445 C69.20500183105469,-50.645999908447266 73.9530029296875,-60.612998962402344 79.08000183105469,-70.41899871826172 C79.98100280761719,-72.14199829101562 82.12999725341797,-72.8010025024414 83.83999633789062,-71.8759994506836 C100.03199768066406,-63.12099838256836 115.75599670410156,-53.297000885009766 130.8979949951172,-42.41299819946289 C134.8780059814453,-28.253000259399414 138.1280059814453,-13.95300006866455 140.63800048828125,0.4269999861717224 C116.5979995727539,-15.812999725341797 91.18900299072266,-29.482999801635742 64.83899688720703,-40.52299880981445z"></path></g><g opacity="1" transform="matrix(1,0,0,1,559.2559814453125,303.2229919433594)"><path fill="rgb(199,201,198)" fill-opacity="1" d=" M53.05400085449219,-15.383999824523926 C53.05400085449219,-15.383999824523926 52.9379997253418,-15.381999969482422 52.9379997253418,-15.381999969482422 C46.33300018310547,-15.243000030517578 40.75199890136719,-10.487000465393066 39.52299880981445,-3.996000051498413 C35.86000061035156,15.36299991607666 31.304000854492188,34.564998626708984 25.868000030517578,53.54399871826172 C24.611000061035156,57.930999755859375 19.541000366210938,59.94300079345703 15.621000289916992,57.60900115966797 C15.621000289916992,57.60900115966797 -52.50600051879883,17.035999298095703 -52.50600051879883,17.035999298095703 C-53.05400085449219,-0.16099999845027924 -52.58300018310547,-17.42099952697754 -51.10599899291992,-34.553001403808594 C-44.233001708984375,-44.391998291015625 -38.7869987487793,-55.88999938964844 -26.68600082397461,-59.944000244140625 C1.1169999837875366,-48.02299880981445 28.073999404907227,-33.01900100708008 53.05400085449219,-15.383999824523926z"></path></g><g opacity="1" transform="matrix(1,0,0,1,175.09800720214844,153.7449951171875)"><path fill="rgb(227,228,226)" fill-opacity="1" d=" M138.4010009765625,50.02799987792969 C92.76699829101562,40.42900085449219 45.305999755859375,21.606000900268555 -2.4059998989105225,14.357000350952148 C-5.179999828338623,13.9350004196167 -7.85099983215332,13.020000457763672 -10.286999702453613,11.626999855041504 C-50.43199920654297,-11.329000473022461 -94.28600311279297,-29.847000122070312 -137.62100219726562,-42.374000549316406 C-139.5050048828125,-42.91899871826172 -140.64300537109375,-44.83300018310547 -140.21800231933594,-46.74599838256836 C-139.81900024414062,-48.71500015258789 -137.93800354003906,-50.02799987792969 -135.9530029296875,-49.71500015258789 C-65.81700134277344,-38.65999984741211 3.062000036239624,-19.388999938964844 69.12100219726562,7.89900016784668 C92.88200378417969,17.714000701904297 114.55000305175781,30.290000915527344 137.2429962158203,42.435001373291016 C140.06500244140625,43.94499969482422 140.6439971923828,47.74399948120117 138.4010009765625,50.02799987792969z"></path></g><g opacity="1" transform="matrix(1,0,0,1,197.92999267578125,159.9600067138672)"><path fill="rgb(172,172,170)" fill-opacity="1" d=" M74.77999877929688,25.309999465942383 C42.470001220703125,15.920000076293945 9.760000228881836,8.109999656677246 -23.239999771118164,1.899999976158142 C-40.20000076293945,-7.679999828338623 -57.380001068115234,-16.75 -74.77999877929688,-25.309999465942383 C-54.215999603271484,-19.10700035095215 -31.966999053955078,-15.58899974822998 -12.557000160217285,-6.09499979019165 C-8.781999588012695,-4.248000144958496 -4.625,-3.299999952316284 -0.421999990940094,-3.299999952316284 C-0.421999990940094,-3.299999952316284 -0.41999998688697815,-3.299999952316284 -0.41999998688697815,-3.299999952316284 C24.959999084472656,5.239999771118164 50.04999923706055,14.779999732971191 74.77999877929688,25.309999465942383z"></path></g><g opacity="1" transform="matrix(1,0,0,1,619.4600219726562,197.20899963378906)"><path fill="rgb(172,172,170)" fill-opacity="1" d=" M-1.496999979019165,-9.25 C-0.5519999861717224,-8.020000457763672 0.0989999994635582,-6.876999855041504 0.7400000095367432,-5.613999843597412 C1.3619999885559082,-4.368000030517578 1.8910000324249268,-3.078000068664551 2.3459999561309814,-1.7569999694824219 C2.7760000228881836,-0.43299999833106995 3.1700000762939453,0.9179999828338623 3.440000057220459,2.2939999103546143 C3.736999988555908,3.6670000553131104 3.9230000972747803,5.059000015258789 4.072999954223633,6.4629998207092285 C4.25,8.119999885559082 3.0510001182556152,9.607999801635742 1.3940000534057617,9.78499984741211 C-0.2630000114440918,9.961999893188477 -1.7489999532699585,8.76200008392334 -1.9270000457763672,7.105000019073486 C-1.9479999542236328,6.906000137329102 -1.9500000476837158,6.710000038146973 -1.9329999685287476,6.51800012588501 C-1.9329999685287476,6.51800012588501 -1.9270000457763672,6.4629998207092285 -1.9270000457763672,6.4629998207092285 C-1.815000057220459,5.2769999504089355 -1.7269999980926514,4.077000141143799 -1.7400000095367432,2.875999927520752 C-1.7269999980926514,1.6710000038146973 -1.8289999961853027,0.4729999899864197 -1.9600000381469727,-0.7319999933242798 C-2.117000102996826,-1.9299999475479126 -2.3420000076293945,-3.125 -2.6540000438690186,-4.296999931335449 C-2.9560000896453857,-5.445000171661377 -3.388000011444092,-6.672999858856201 -3.8429999351501465,-7.625999927520752 C-3.8429999351501465,-7.625999927520752 -3.9110000133514404,-7.76800012588501 -3.9110000133514404,-7.76800012588501 C-4.25,-8.477999687194824 -3.9509999752044678,-9.32800006866455 -3.240999937057495,-9.666999816894531 C-2.622999906539917,-9.961999893188477 -1.8980000019073486,-9.772000312805176 -1.496999979019165,-9.25z"></path></g><g opacity="1" transform="matrix(1,0,0,1,191.78500366210938,161.2790069580078)"><path fill="rgb(199,201,198)" fill-opacity="1" d=" M105.9749984741211,36.45800018310547 C63.9739990234375,23.024999618530273 21.253999710083008,12.291000366210938 -22.024999618530273,4.271999835968018 C-49.380001068115234,-10.562999725341797 -77.48100280761719,-24.19300079345703 -105.9749984741211,-36.45800018310547 C-73.46499633789062,-31.886999130249023 -45.13800048828125,-16.81999969482422 -17.094999313354492,-0.4169999957084656 C19.458999633789062,7.741000175476074 77.07099914550781,16.049999237060547 105.9749984741211,36.45800018310547z"></path></g><g opacity="1" transform="matrix(1,0,0,1,105.26799774169922,335.87799072265625)"><path fill="rgb(199,201,198)" fill-opacity="1" d=" M94.71299743652344,32.090999603271484 C94.70800018310547,35.53799819946289 94.47000122070312,38.91400146484375 93.99299621582031,42.24399948120117 C93.33499908447266,46.84400177001953 88.87000274658203,49.9010009765625 84.37300109863281,48.72999954223633 C26.027000427246094,33.53099822998047 -31.31800079345703,14.336999893188477 -87.0790023803711,-8.697999954223633 C-89.26300048828125,-9.600000381469727 -90.94499969482422,-11.446000099182129 -91.572998046875,-13.725000381469727 C-94.04499816894531,-22.68899917602539 -94.71299743652344,-32.512001037597656 -93.49199676513672,-41.92100143432617 C-92.8499984741211,-46.86600112915039 -87.73400115966797,-49.9010009765625 -83.0719985961914,-48.1349983215332 C-82.50299835205078,-47.91899871826172 -81.93299865722656,-47.70500183105469 -81.36399841308594,-47.4900016784668 C-79.677001953125,-46.85499954223633 -77.83499908447266,-46.74300003051758 -76.08799743652344,-47.185001373291016 C-72.88200378417969,-47.994998931884766 -69.58899688720703,-48.584999084472656 -66.22799682617188,-48.93899917602539 C-47.99800109863281,-42.11899948120117 -29.63800048828125,-35.71900177001953 -11.157999992370605,-29.73900032043457 C15.357999801635742,-21.150999069213867 42.111000061035156,-13.402999877929688 69.11299896240234,-6.519000053405762 C69.14800262451172,-5.486999988555908 69.20500183105469,-4.461999893188477 69.28500366210938,-3.444999933242798 C69.4260025024414,-1.6349999904632568 70.72100067138672,-0.11900000274181366 72.48400115966797,0.31299999356269836 C76.6729965209961,1.340000033378601 80.86599731445312,2.3489999771118164 85.06800079345703,3.3310000896453857 C87.66100311279297,3.937000036239624 89.74800109863281,5.829999923706055 90.63899993896484,8.34000015258789 C93.2760009765625,15.767000198364258 94.71299743652344,23.761999130249023 94.71299743652344,32.090999603271484z"></path></g><g opacity="1" transform="matrix(1,0,0,1,411.80999755859375,142.26699829101562)"><path fill="rgb(227,228,226)" fill-opacity="1" d=" M6.697000026702881,0 C6.818999767303467,12.130999565124512 -6.820000171661377,12.130999565124512 -6.697000026702881,-0.0010000000474974513 C-6.818999767303467,-12.130999565124512 6.820000171661377,-12.130999565124512 6.697000026702881,0z"></path></g><g opacity="1" transform="matrix(1,0,0,1,411.80999755859375,142.22799682617188)"><path fill="rgb(255,255,255)" fill-opacity="1" d=" M0,7.251999855041504 C-6.556000232696533,7.3520002365112305 -6.556000232696533,-7.353000164031982 0.0010000000474974513,-7.251999855041504 C6.556000232696533,-7.3520002365112305 6.556000232696533,7.353000164031982 0,7.251999855041504z"></path></g><g opacity="1" transform="matrix(1,0,0,1,616.7899780273438,188.77099609375)"><path fill="rgb(227,228,226)" fill-opacity="1" d=" M7.513000011444092,0 C7.64900016784668,13.182999610900879 -7.650000095367432,13.182999610900879 -7.513000011444092,-0.0010000000474974513 C-7.64900016784668,-13.182999610900879 7.650000095367432,-13.182999610900879 7.513000011444092,0z"></path></g><g opacity="1" transform="matrix(1,0,0,1,616.7899780273438,188.77200317382812)"><path fill="rgb(255,255,255)" fill-opacity="1" d=" M0,8.154000282287598 C-7.116000175476074,8.255000114440918 -7.116000175476074,-8.256999969482422 0.0010000000474974513,-8.154000282287598 C7.116000175476074,-8.255999565124512 7.116000175476074,8.256999969482422 0,8.154000282287598z"></path></g><g opacity="1" transform="matrix(1,0,0,1,510.3699951171875,194.21600341796875)"><path fill="rgb(172,172,170)" fill-opacity="1" d=" M77.97000122070312,3.563999891281128 C51.53499984741211,6.25 24.5939998626709,12.119999885559082 -0.5299999713897705,20.61400032043457 C-18.649999618530273,11.77400016784668 -37.540000915527344,4.453999996185303 -57.0099983215332,-1.246000051498413 C-65.91200256347656,-2.427999973297119 -71.90899658203125,-7.466000080108643 -77.97000122070312,-13.715999603271484 C-55.367000579833984,-20.09600067138672 -29.149999618530273,-20.61400032043457 -6.199999809265137,-15.095999717712402 C23.309999465942383,-17.683000564575195 53.6870002746582,-10.576000213623047 77.97000122070312,3.563999891281128z"></path></g><g opacity="1" transform="matrix(1,0,0,1,140.7169952392578,362.9119873046875)"><path fill="rgb(199,201,198)" fill-opacity="1" d=" M137.3280029296875,9.857999801635742 C138.1490020751953,13.857000350952148 135.65699768066406,17.808000564575195 131.73500061035156,18.93899917602539 C113.47899627685547,24.198999404907227 95.1500015258789,29.06800079345703 76.75299835205078,33.486000061035156 C65.84500122070312,36.10499954223633 57.082000732421875,35.86600112915039 46.99300003051758,32.534000396728516 C-11.277000427246094,17.625999450683594 -119.3499984741211,-22.79599952697754 -137.03900146484375,-29.5049991607666 C-138.05499267578125,-29.889999389648438 -138.1490020751953,-31.27899932861328 -137.20399475097656,-31.81599998474121 C-134.4239959716797,-33.39500045776367 -131.5489959716797,-34.82699966430664 -128.61700439453125,-36.104000091552734 C-128.2270050048828,-34.65399932861328 -127.7969970703125,-33.2239990234375 -127.3270034790039,-31.81399917602539 C-69.447998046875,-7.690999984741211 -9.897000312805176,12.237000465393066 50.77199935913086,27.899999618530273 C56.03900146484375,29.260000228881836 61.56399917602539,29.332000732421875 66.86399841308594,28.107999801635742 C90.50299835205078,22.652999877929688 113.95700073242188,16.562000274658203 137.31300354003906,9.78499984741211 C137.3179931640625,9.809000015258789 137.322998046875,9.833999633789062 137.3280029296875,9.857999801635742z"></path></g><g opacity="1" transform="matrix(1,0,0,1,629.094970703125,253.9949951171875)"><path fill="rgb(172,172,170)" fill-opacity="1" d=" M18.524999618530273,12.354999542236328 C18.524999618530273,15.875 18.174999237060547,19.315000534057617 17.4950008392334,22.635000228881836 C13.404999732971191,4.224999904632568 -0.5450000166893005,-10.484999656677246 -18.524999618530273,-15.645000457763672 C-11.614999771118164,-19.704999923706055 -3.674999952316284,-22.19499969482422 4.815000057220459,-22.635000228881836 C13.324999809265137,-13.444999694824219 18.524999618530273,-1.1449999809265137 18.524999618530273,12.354999542236328z"></path></g><g opacity="1" transform="matrix(1,0,0,1,101.04000091552734,311.4949951171875)"><path fill="rgb(227,228,226)" fill-opacity="1" d=" M76.23999786376953,24.55500030517578 C76.23999786376953,24.55500030517578 -76.23999786376953,-22.825000762939453 -76.23999786376953,-22.825000762939453 C-74.80999755859375,-22.454999923706055 -73.30999755859375,-22.434999465942383 -71.86000061035156,-22.80500030517578 C-68.6500015258789,-23.614999771118164 -65.36000061035156,-24.204999923706055 -62,-24.55500030517578 C-43.77000045776367,-17.735000610351562 -25.40999984741211,-11.335000038146973 -6.929999828338623,-5.355000019073486 C19.59000015258789,3.234999895095825 46.34000015258789,10.984999656677246 73.33999633789062,17.864999771118164 C73.37000274658203,18.895000457763672 73.43000030517578,19.924999237060547 73.51000213623047,20.934999465942383 C73.63999938964844,22.575000762939453 74.72000122070312,23.985000610351562 76.23999786376953,24.55500030517578z"></path></g><g opacity="1" transform="matrix(1,0,0,1,410.156005859375,246.8159942626953)"><path fill="rgb(199,201,198)" fill-opacity="1" d=" M21.40399932861328,-27.68600082397461 C16.298999786376953,-33.11399841308594 9.531999588012695,-36.08599853515625 2.3550000190734863,-35.986000061035156 C-14.232999801635742,-35.808998107910156 -28.888999938964844,-19.608999252319336 -30.315000534057617,0.125 C-31.090999603271484,10.857000350952148 -27.843000411987305,20.93899917602539 -21.40399932861328,27.785999298095703 C-16.36400032043457,33.145999908447266 -9.704999923706055,36.08599853515625 -2.627000093460083,36.08599853515625 C-2.5369999408721924,36.08599853515625 -2.446000099182129,36.08700180053711 -2.3550000190734863,36.08599853515625 C14.232999801635742,35.909000396728516 28.888999938964844,19.709999084472656 30.315000534057617,-0.02500000037252903 C31.090999603271484,-10.756999969482422 27.843000411987305,-20.839000701904297 21.40399932861328,-27.68600082397461z M2.4189999103546143,-29.986000061035156 C2.492000102996826,-29.98699951171875 2.562999963760376,-29.98699951171875 2.635999917984009,-29.98699951171875 C8.112000465393066,-29.98699951171875 13.086000442504883,-27.773000717163086 17.033000946044922,-23.576000213623047 C21.29800033569336,-19.040000915527344 23.84600067138672,-12.685999870300293 24.333999633789062,-5.646999835968018 C24.426000595092773,-4.314000129699707 23.391000747680664,-3.1649999618530273 22.055999755859375,-3.0959999561309814 C22.055999755859375,-3.0959999561309814 8.901000022888184,-2.4140000343322754 8.901000022888184,-2.4140000343322754 C7.841000080108643,-2.3589999675750732 6.88700008392334,-3.0160000324249268 6.519999980926514,-4.01200008392334 C5.531000137329102,-6.698999881744385 3.319999933242798,-8.512999534606934 0.6169999837875366,-8.484000205993652 C0.2240000069141388,-8.479999542236328 -0.164000004529953,-8.437000274658203 -0.5450000166893005,-8.357999801635742 C-1.5820000171661377,-8.142999649047852 -2.6459999084472656,-8.548999786376953 -3.174999952316284,-9.465999603271484 C-3.174999952316284,-9.465999603271484 -10.779999732971191,-22.66699981689453 -10.779999732971191,-22.66699981689453 C-11.402000427246094,-23.746000289916992 -11.102999687194824,-25.136999130249023 -10.074999809265137,-25.840999603271484 C-6.293000221252441,-28.430999755859375 -2.0209999084472656,-29.937999725341797 2.4189999103546143,-29.986000061035156z M-24.33099937438965,0.5569999814033508 C-23.795000076293945,-6.859000205993652 -21.128000259399414,-13.680999755859375 -17.14299964904785,-18.988000869750977 C-16.107999801635742,-20.367000579833984 -13.996999740600586,-20.23699951171875 -13.13700008392334,-18.743000030517578 C-13.13700008392334,-18.743000030517578 -5.945000171661377,-6.26200008392334 -5.945000171661377,-6.26200008392334 C-5.53000020980835,-5.541999816894531 -5.533999919891357,-4.668000221252441 -5.916999816894531,-3.930000066757202 C-6.544000148773193,-2.7200000286102295 -6.953000068664551,-1.340999960899353 -7.059000015258789,0.125 C-7.202000141143799,2.115000009536743 -6.76800012588501,3.934000015258789 -5.927000045776367,5.374000072479248 C-5.5329999923706055,6.048999786376953 -5.453999996185303,6.861999988555908 -5.789000034332275,7.567999839782715 C-5.789000034332275,7.567999839782715 -13.142999649047852,23.034000396728516 -13.142999649047852,23.034000396728516 C-13.854999542236328,24.531999588012695 -15.871000289916992,24.908000946044922 -17.009000778198242,23.701000213623047 C-17.017000198364258,23.69300079345703 -17.024999618530273,23.68400001525879 -17.033000946044922,23.676000595092773 C-22.326000213623047,18.047000885009766 -24.985000610351562,9.619999885559082 -24.33099937438965,0.5569999814033508z M-2.4189999103546143,30.086000442504883 C-4.576000213623047,30.114999771118164 -6.650000095367432,29.785999298095703 -8.616999626159668,29.131999969482422 C-9.98900032043457,28.676000595092773 -10.656000137329102,27.118000030517578 -10.03499984741211,25.812000274658203 C-10.03499984741211,25.812000274658203 -1.7879999876022339,8.467000007629395 -1.7879999876022339,8.467000007629395 C-1.409000039100647,8.541999816894531 -1.0199999809265137,8.588000297546387 -0.6169999837875366,8.583000183105469 C2.367000102996826,8.552000045776367 5.079999923706055,6.2870001792907715 6.341000080108643,3.11299991607666 C6.692999839782715,2.2290000915527344 7.564000129699707,1.6610000133514404 8.515000343322754,1.6109999418258667 C8.515000343322754,1.6109999418258667 21.29599952697754,0.9490000009536743 21.29599952697754,0.9490000009536743 C22.826000213623047,0.8690000176429749 24.066999435424805,2.2309999465942383 23.788000106811523,3.73799991607666 C21.06399917602539,18.475000381469727 9.970000267028809,29.95400047302246 -2.4189999103546143,30.086000442504883z"></path></g><g opacity="1" transform="matrix(1,0,0,1,425.0740051269531,213.44000244140625)"><path fill="rgb(199,201,198)" fill-opacity="1" d=" M47.7859992980957,20.799999237060547 C47.7859992980957,20.799999237060547 43.2859992980957,25.780000686645508 43.2859992980957,25.780000686645508 C40.72600173950195,23.489999771118164 37.35599899291992,22.110000610351562 33.65599822998047,22.110000610351562 C32.2859992980957,22.110000610351562 30.95599937438965,22.299999237060547 29.70599937438965,22.65999984741211 C28.805999755859375,15.520000457763672 22.715999603271484,10 15.326000213623047,10 C13.406000137329102,10 11.5649995803833,10.369999885559082 9.885000228881836,11.0600004196167 C8.885000228881836,9.489999771118164 7.744999885559082,8.029999732971191 6.485000133514404,6.690000057220459 C1.3849999904632568,1.2599999904632568 -5.383999824523926,-1.7100000381469727 -12.564000129699707,-1.6100000143051147 C-15.923999786376953,-1.5700000524520874 -19.214000701904297,-0.8799999952316284 -22.323999404907227,0.3700000047683716 C-22.31399917602539,0.28999999165534973 -22.31399917602539,0.20999999344348907 -22.31399917602539,0.12999999523162842 C-22.31399917602539,-4.579999923706055 -26.134000778198242,-8.399999618530273 -30.8439998626709,-8.399999618530273 C-32.56399917602539,-8.399999618530273 -34.17399978637695,-7.889999866485596 -35.513999938964844,-7 C-36.624000549316406,-9.770000457763672 -39.393001556396484,-11.032999992370605 -42.09000015258789,-12.133999824523926 C-43.275001525878906,-12.618000030517578 -46.7239990234375,-12.76200008392334 -47.78499984741211,-12.192000389099121 C-47.78499984741211,-12.192000389099121 -41.04499816894531,-15.180000305175781 -32.88600158691406,-18.42799949645996 C-26.12299919128418,-21.1200008392334 -18.341999053955078,-23.948999404907227 -12.994000434875488,-25.780000686645508 C8.486000061035156,-11.989999771118164 28.836000442504883,3.5999999046325684 47.7859992980957,20.799999237060547z"></path></g><g opacity="1" transform="matrix(1,0,0,1,413.760009765625,312.2349853515625)"><path fill="rgb(199,201,198)" fill-opacity="1" d=" M27.100000381469727,1.565000057220459 C25.5,1.4450000524520874 23.889999389648438,1.375 22.260000228881836,1.375 C6.420000076293945,1.375 -7.96999979019165,7.534999847412109 -18.649999618530273,17.584999084472656 C-20.969999313354492,5.775000095367432 -23.790000915527344,-5.945000171661377 -27.100000381469727,-17.55500030517578 C-26.510000228881836,-17.575000762939453 -25.920000076293945,-17.584999084472656 -25.31999969482422,-17.584999084472656 C-5.349999904632568,-17.584999084472656 12.9399995803833,-10.385000228881836 27.100000381469727,1.565000057220459z"></path></g><g opacity="1" transform="matrix(1,0,0,1,418,329.8550109863281)"><path fill="rgb(227,228,226)" fill-opacity="1" d=" M22.889999389648438,-16.05500030517578 C21.969999313354492,-8.835000038146973 20.110000610351562,-1.9149999618530273 17.440000534057617,4.574999809265137 C5.079999923706055,9.045000076293945 -7.409999847412109,12.9350004196167 -20.010000228881836,16.2450008392334 C-20.860000610351562,10.795000076293945 -21.829999923706055,5.375 -22.889999389648438,-0.03500000014901161 C-12.210000038146973,-10.085000038146973 2.180000066757202,-16.2450008392334 18.020000457763672,-16.2450008392334 C19.65999984741211,-16.2450008392334 21.280000686645508,-16.174999237060547 22.889999389648438,-16.05500030517578z"></path></g><g opacity="1" transform="matrix(1,0,0,1,98.01499938964844,335.2879943847656)"><path fill="rgb(227,228,226)" fill-opacity="1" d=" M19.459999084472656,21.60300064086914 C19.459999084472656,21.60300064086914 -21.947999954223633,7.750999927520752 -21.947999954223633,7.750999927520752 C-22.974000930786133,7.382999897003174 -23.641000747680664,6.389999866485596 -23.593000411987305,5.302000045776367 C-23.593000411987305,5.302000045776367 -22.600000381469727,-19.440000534057617 -22.600000381469727,-19.440000534057617 C-22.530000686645508,-21.05299949645996 -20.965999603271484,-22.17300033569336 -19.41699981689453,-21.7189998626709 C-19.41699981689453,-21.7189998626709 21.81800079345703,-8.637999534606934 21.81800079345703,-8.637999534606934 C22.9060001373291,-8.319000244140625 23.641000747680664,-7.304999828338623 23.604999542236328,-6.171999931335449 C23.604999542236328,-6.171999931335449 22.78499984741211,19.341999053955078 22.78499984741211,19.341999053955078 C22.731000900268555,21.02899932861328 21.04800033569336,22.17300033569336 19.459999084472656,21.60300064086914z"></path></g><g opacity="1" transform="matrix(1,0,0,1,667.0250244140625,246.9550018310547)"><path fill="rgb(172,172,170)" fill-opacity="1" d=" M4.563000202178955,3.989000082015991 C4.563000202178955,3.989000082015991 -11.5649995803833,13.645000457763672 -11.5649995803833,13.645000457763672 C-11.5649995803833,13.645000457763672 -11.5649995803833,2.255000114440918 -11.5649995803833,2.255000114440918 C-11.5649995803833,2.255000114440918 -9.576000213623047,0.6349999904632568 -9.576000213623047,0.6349999904632568 C-9.576000213623047,0.6349999904632568 -2.305999994277954,-5.284999847412109 -2.305999994277954,-5.284999847412109 C-2.305999994277954,-5.284999847412109 -1.6360000371932983,-5.84499979019165 -1.6360000371932983,-5.84499979019165 C0.05400000140070915,-7.255000114440918 0.6050000190734863,-9.625 -0.3059999942779541,-11.625 C-0.3059999942779541,-11.625 -1.0160000324249268,-13.204999923706055 -1.0160000324249268,-13.204999923706055 C2.944000005722046,-13.645000457763672 6.545000076293945,-12.800000190734863 8.352999687194824,-10.140999794006348 C11.5649995803833,-5.418000221252441 9.512999534606934,1.128999948501587 4.563000202178955,3.989000082015991z"></path></g><g opacity="1" transform="matrix(1,0,0,1,658.322021484375,254.90499877929688)"><path fill="rgb(199,201,198)" fill-opacity="1" d=" M-2.861999988555908,-5.695000171661377 C-2.861999988555908,-5.695000171661377 0.20100000500679016,-5.150000095367432 0.20100000500679016,-5.150000095367432 C1.7410000562667847,-4.876999855041504 2.861999988555908,-3.5369999408721924 2.861999988555908,-1.9730000495910645 C2.861999988555908,-1.9730000495910645 2.861999988555908,2.2669999599456787 2.861999988555908,2.2669999599456787 C2.861999988555908,2.2669999599456787 -2.861999988555908,5.695000171661377 -2.861999988555908,5.695000171661377 C-2.861999988555908,5.695000171661377 -2.861999988555908,-5.695000171661377 -2.861999988555908,-5.695000171661377z"></path></g><g opacity="1" transform="matrix(1,0,0,1,336.0260009765625,243.56500244140625)"><path fill="rgb(172,172,170)" fill-opacity="1" d=" M34.553001403808594,25.0049991607666 C22.37700080871582,26.42099952697754 10.16100025177002,27.326000213623047 -2.055999994277954,27.72100067138672 C-9.940999984741211,27.975000381469727 -17.555999755859375,24.91900062561035 -23.101999282836914,19.308000564575195 C-25.489999771118164,16.892000198364258 -27.854000091552734,14.442999839782715 -30.195999145507812,11.961000442504883 C-34.55400085449219,7.3420000076293945 -33.78200149536133,-0.06700000166893005 -28.530000686645508,-3.63700008392334 C-15.413000106811523,-12.555000305175781 -1.9589999914169312,-20.665000915527344 11.762999534606934,-27.975000381469727 C20.60300064086914,-10.6850004196167 28.19300079345703,7.014999866485596 34.553001403808594,25.0049991607666z"></path></g><g opacity="1" transform="matrix(1,0,0,1,527.0679931640625,172.80799865722656)"><path fill="rgb(172,172,170)" fill-opacity="1" d=" M1.5429999828338623,11.26099967956543 C0.2930000126361847,11.26099967956543 -0.902999997138977,10.881999969482422 -1.9490000009536743,10.13599967956543 C-4.10699987411499,8.597000122070312 -5.34499979019165,5.709000110626221 -5.34499979019165,2.2100000381469727 C-5.34499979019165,-3.635999917984009 -1.9240000247955322,-9.395999908447266 2.443000078201294,-10.902000427246094 C3.48799991607666,-11.26099967956543 4.625999927520752,-10.706999778747559 4.986000061035156,-9.663000106811523 C5.3460001945495605,-8.619000434875488 4.791999816894531,-7.480000019073486 3.746999979019165,-7.119999885559082 C0.9869999885559082,-6.168000221252441 -1.3450000286102295,-1.8960000276565552 -1.3450000286102295,2.2100000381469727 C-1.3450000286102295,4.335000038146973 -0.6880000233650208,6.125 0.3720000088214874,6.880000114440918 C0.9649999737739563,7.303999900817871 1.6430000066757202,7.374000072479248 2.443000078201294,7.0980000495910645 C3.48799991607666,6.736999988555908 4.625999927520752,7.293000221252441 4.986000061035156,8.336999893188477 C5.3460001945495605,9.380999565124512 4.791999816894531,10.520000457763672 3.746999979019165,10.880000114440918 C3.006999969482422,11.135000228881836 2.2660000324249268,11.26099967956543 1.5429999828338623,11.26099967956543z"></path></g><g opacity="1" transform="matrix(1,0,0,1,362.8900146484375,240.48300170898438)"><path fill="rgb(199,201,198)" fill-opacity="1" d=" M15.100000381469727,27.15999984741211 C12.630000114440918,27.489999771118164 10.15999984741211,27.799999237060547 7.690000057220459,28.079999923706055 C1.3300000429153442,10.09000015258789 -6.260000228881836,-7.599999904632568 -15.100000381469727,-24.889999389648438 C-13.079999923706055,-25.969999313354492 -11.050000190734863,-27.040000915527344 -9.010000228881836,-28.079999923706055 C0.3799999952316284,-10.069999694824219 8.40999984741211,8.390000343322754 15.100000381469727,27.15999984741211z"></path></g><g opacity="1" transform="matrix(1,0,0,1,448.4110107421875,195.0749969482422)"><path fill="rgb(172,172,170)" fill-opacity="1" d=" M-28.347999572753906,-20.868000030517578 C-28.347999572753906,-20.868000030517578 34.6510009765625,28.320999145507812 34.6510009765625,28.320999145507812 C34.6510009765625,28.320999145507812 4.247000217437744,-1.218000054359436 -8.704999923706055,-9.829000473022461 C-21.656999588012695,-18.43899917602539 -34.652000427246094,-28.320999145507812 -34.652000427246094,-28.320999145507812 C-34.652000427246094,-28.320999145507812 -28.347999572753906,-20.868000030517578 -28.347999572753906,-20.868000030517578z"></path></g></g><g transform="matrix(1,0,0,1,96.4679946899414,362.677978515625)" opacity="1" style="display: block;"><g opacity="1" transform="matrix(1,0,0,1,22.461999893188477,13.095999717712402)"><path fill="rgb(227,228,226)" fill-opacity="1" d=" M12.208999633789062,11.642000198364258 C15.428999900817871,12.82699966430664 18.99799919128418,12.845999717712402 22.17300033569336,11.545000076293945 C22.17300033569336,11.545000076293945 22.211999893188477,11.529000282287598 22.211999893188477,11.529000282287598 C22.084999084472656,7.960000038146973 21.826000213623047,4.425000190734863 21.42300033569336,0.9319999814033508 C21.187999725341797,-1.093000054359436 19.77199935913086,-2.7880001068115234 17.80699920654297,-3.3310000896453857 C6.666999816894531,-6.409999847412109 -4.506999969482422,-9.347000122070312 -15.718000411987305,-12.130999565124512 C-18.59600067138672,-12.845999717712402 -21.45599937438965,-10.880999565124512 -21.836999893188477,-7.939000129699707 C-22.086000442504883,-6.02400016784668 -22.211999893188477,-4.071000099182129 -22.211999893188477,-2.0869998931884766 C-22.211999893188477,-1.9199999570846558 -22.20199966430664,-1.753999948501587 -22.200000762939453,-1.5870000123977661 C-10.795999526977539,2.996999979019165 0.6819999814033508,7.39900016784668 12.208999633789062,11.642000198364258z"></path></g><g opacity="1" transform="matrix(1,0,0,1,22.764999389648438,30.78700065612793)"><path fill="rgb(227,228,226)" fill-opacity="1" d=" M-21.983999252319336,-12.878000259399414 C-21.457000732421875,-9.446000099182129 -20.548999786376953,-6.139999866485596 -19.288000106811523,-3.009000062942505 C-18.775999069213867,-1.7380000352859497 -17.764999389648438,-0.7289999723434448 -16.489999771118164,-0.22599999606609344 C-6.014999866485596,3.9079999923706055 4.510000228881836,7.895999908447266 15.074999809265137,11.743000030517578 C18.194000244140625,12.878000259399414 21.506000518798828,10.67300033569336 21.72100067138672,7.361000061035156 C21.881999969482422,4.885000228881836 21.961000442504883,2.38700008392334 21.983999252319336,-0.125 C12.984999656677246,4.105999946594238 -11.45300006866455,-10.09000015258789 -21.983999252319336,-12.878000259399414z"></path></g><g opacity="1" transform="matrix(1,0,0,1,152.156005859375,52.66600036621094)"><path fill="rgb(227,228,226)" fill-opacity="1" d=" M-27.145999908447266,1.6929999589920044 C-22.246000289916992,3.11299991607666 -17.34600067138672,4.493000030517578 -12.425999641418457,5.8429999351501465 C-11.996000289916992,5.9730000495910645 -11.555999755859375,6.0929999351501465 -11.116000175476074,6.203000068664551 C-0.6769999861717224,9.086000442504883 9.795000076293945,11.831000328063965 20.29199981689453,14.435999870300293 C22.64900016784668,15.020999908447266 25.170000076293945,14.664999961853027 27.208999633789062,13.345000267028809 C27.208999633789062,13.345000267028809 27.236000061035156,13.32800006866455 27.236000061035156,13.32800006866455 C26.790000915527344,10.515000343322754 26.093000411987305,7.784999847412109 25.150999069213867,5.170000076293945 C24.62299919128418,3.7060000896453857 23.489999771118164,2.5369999408721924 22.042999267578125,1.9639999866485596 C8.133000373840332,-3.5369999408721924 -5.8520002365112305,-8.798999786376953 -19.917999267578125,-13.8100004196167 C-23.31800079345703,-15.020999908447266 -26.94499969482422,-12.595999717712402 -27.104999542236328,-8.991000175476074 C-27.191999435424805,-7.0269999504089355 -27.236000061035156,-5.052999973297119 -27.236000061035156,-3.068000078201294"></path></g><g opacity="1" transform="matrix(1,0,0,1,152.67100524902344,72.53900146484375)"><path fill="rgb(227,228,226)" fill-opacity="1" d=" M27.275999069213867,-0.01899999938905239 C27.266000747680664,-0.013000000268220901 27.256000518798828,-0.007000000216066837 27.2450008392334,-0.0010000000474974513 C25.2189998626709,1.1169999837875366 22.823999404907227,1.3669999837875366 20.57699966430664,0.8119999766349792 C16.548999786376953,-0.18299999833106995 12.522000312805176,-1.2050000429153442 8.508000373840332,-2.240000009536743 C8.498000144958496,-2.2300000190734863 8.498000144958496,-2.2300000190734863 8.48799991607666,-2.240000009536743 C5.638000011444092,-2.9700000286102295 2.7990000247955322,-3.7209999561309814 -0.050999999046325684,-4.4710001945495605 C-0.050999999046325684,-4.4710001945495605 -0.061000000685453415,-4.460999965667725 -0.061000000685453415,-4.4710001945495605 C-2.8610000610351562,-5.210999965667725 -5.660999774932861,-5.960999965667725 -8.451000213623047,-6.7210001945495605 C-14.743000030517578,-8.428999900817871 -21.014999389648438,-10.185999870300293 -27.288000106811523,-11.984000205993652 C-27.086999893188477,-9.527999877929688 -26.839000701904297,-7.084000110626221 -26.506999969482422,-4.666999816894531 C-26.21299934387207,-2.5299999713897705 -24.700000762939453,-0.7549999952316284 -22.624000549316406,-0.16699999570846558 C-8.39799976348877,3.86299991607666 5.888999938964844,7.6570000648498535 20.232999801635742,11.211999893188477 C23.3439998626709,11.982999801635742 26.44300079345703,9.876999855041504 26.875,6.701000213623047 C27.14699935913086,4.697000026702881 27.288000106811523,2.6500000953674316 27.288000106811523,0.5699999928474426 C27.288000106811523,0.37299999594688416 27.27899932861328,0.17800000309944153 27.275999069213867,-0.01899999938905239z"></path></g></g></g></g></svg>