<?xml version="1.0" encoding="UTF-8"?>
<svg id="Layer_1" data-name="Layer 1" xmlns="http://www.w3.org/2000/svg" viewBox="0 0 240 48">
  <path d="M37.47,39.61c0,1.55-1.13,2.69-2.64,2.69-1.6,0-2.77-1.13-2.77-2.69s1.17-2.77,2.77-2.77c1.51,0,2.64,1.17,2.64,2.77Zm-9.61-2.77c-1.59,0-2.73,1.17-2.73,2.77s1.13,2.69,2.73,2.69,2.69-1.13,2.69-2.69-1.09-2.77-2.69-2.77ZM46.12,5.54c-1.59,0-2.69,1.13-2.69,2.69s1.09,2.77,2.69,2.77,2.64-1.18,2.64-2.77-1.01-2.69-2.64-2.69Zm-2.52,18.5c0,3.82-.97,4.83-4.15,4.83h0s0,0,0,0c-2.98,0-4.78-1.3-4.78-4.32V15.86h-5.12v8.18c0,3.69-.92,4.83-4.28,4.83h-1.05s0,0,0,0h-3.06c-.29-5.67-2.85-10.07-9.48-14.35l-3.06,4.11c5.04,3.19,7.51,7.09,7.51,10.24H3.53v4.57H24.21s0,0,0,0h0s1.09,0,1.09,0c3.69,0,6.21-.75,7.68-2.56,1.17,1.64,3.23,2.56,6.46,2.56,0,0,0,0,0,0h0c6.21,0,9.27-2.14,9.27-8.73V15.86h-5.12v8.18Zm9.86,9.4h5.08V1.72h-5.08v31.72Zm25.85-9.4c0,3.82-.97,4.83-4.15,4.83h0s0,0,0,0h-4.41V15.86h-5.08v14.64c0,4.11-1.55,5.58-5.29,6.08l.67,4.57c5.75-.55,8.73-2.94,9.48-7.84v.13h4.62s0,0,0,0h0c6.21,0,9.27-2.14,9.27-8.73V15.86h-5.12v8.18Zm.88,12.8c-1.59,0-2.69,1.17-2.69,2.77s1.09,2.69,2.69,2.69,2.64-1.13,2.64-2.69-1.01-2.77-2.64-2.77Zm20.86-25.55c1.6,0,2.69-1.18,2.69-2.73s-1.09-2.73-2.69-2.73-2.73,1.13-2.73,2.73,1.13,2.73,2.73,2.73Zm4.2-2.73c0,1.55,1.17,2.73,2.77,2.73,1.51,0,2.64-1.18,2.64-2.73s-1.13-2.73-2.64-2.73c-1.6,0-2.77,1.13-2.77,2.73Zm-.63-3.02c1.64,0,2.73-1.22,2.73-2.77S106.26,0,104.62,0C103.15,0,101.94,1.22,101.94,2.77s1.22,2.77,2.69,2.77Zm17.54,31.3c-1.6,0-2.77,1.17-2.77,2.77s1.17,2.69,2.77,2.69c1.51,0,2.64-1.13,2.64-2.69s-1.13-2.77-2.64-2.77Zm-6.97,0c-1.59,0-2.73,1.17-2.73,2.77s1.13,2.69,2.73,2.69,2.69-1.13,2.69-2.69-1.09-2.77-2.69-2.77Zm22.91-25.85c1.51,0,2.64-1.18,2.64-2.77s-1.13-2.69-2.64-2.69c-1.59,0-2.77,1.13-2.77,2.69s1.18,2.77,2.77,2.77Zm-6.96,0c1.59,0,2.69-1.18,2.69-2.77s-1.09-2.69-2.69-2.69-2.73,1.13-2.73,2.69,1.13,2.77,2.73,2.77Zm38.73,13.89c0,3.06-.8,3.99-3.32,3.99-2.22,0-3.36-.88-3.36-2.73v-7.22h-5.08v5.92c0,3.02-.92,4.03-3.4,4.03-2.26,0-3.23-.92-3.23-2.9v-7.05h-5.08v5.92c0,3.23-1.05,4.03-3.48,4.03h-.92s0,0,0,0c-2.98,0-4.78-1.3-4.78-4.32V15.86h-5.12v8.18c0,3.69-.92,4.83-4.28,4.83h-1.05s0,0,0,0c-2.98,0-4.78-1.3-4.78-4.32V15.86h-5.12v8.18c0,3.69-.92,4.83-4.28,4.83h-5.45V15.86h-5.08v14.64c0,4.11-1.55,5.58-5.29,6.08l.67,4.57c5.75-.55,8.73-2.94,9.48-7.84v.13h5.71c3.69,0,6.21-.75,7.68-2.56,1.17,1.64,3.23,2.56,6.46,2.56,0,0,0,0,0,0h0s1.09,0,1.09,0c3.69,0,6.21-.75,7.68-2.56,1.17,1.64,3.23,2.56,6.46,2.56,0,0,0,0,0,0h0s.92,0,.92,0c3.36,0,5.29-.75,6.5-1.97,1.43,1.59,3.61,1.97,5.96,1.97,2.56,0,4.53-.55,6-1.89,1.47,1.26,3.52,1.89,5.71,1.89,4.7,0,7.89-2.73,7.89-7.26V15.86h-5.12v9.02Zm21.95,8.56c6.46,0,9.52-2.26,9.52-8.73V15.86h-5.12v8.18c0,3.69-.92,4.83-4.28,4.83h-1.05s0,0,0,0h-4.41V15.86h-5.08v14.64c0,4.11-1.55,5.58-5.29,6.08l.67,4.57c5.75-.55,8.73-2.94,9.48-7.84v.13h4.62s0,0,0,0h0s.92,0,.92,0Zm5.25,6.17c0-1.55-1.09-2.73-2.69-2.73s-2.73,1.18-2.73,2.73,1.13,2.73,2.73,2.73,2.69-1.13,2.69-2.73Zm.84,2.94c-1.51,0-2.73,1.18-2.73,2.81,0,1.51,1.22,2.64,2.73,2.64,1.63,0,2.73-1.13,2.73-2.64,0-1.64-1.09-2.81-2.73-2.81Zm3.44-5.66c-1.59,0-2.77,1.18-2.77,2.73s1.18,2.73,2.77,2.73c1.51,0,2.64-1.13,2.64-2.73s-1.13-2.73-2.64-2.73Zm30.88-.04c-1.59,0-2.69,1.17-2.69,2.77s1.09,2.69,2.69,2.69,2.64-1.13,2.64-2.69-1.01-2.77-2.64-2.77Zm-.88-20.98v8.18c0,3.82-.97,4.83-4.15,4.83h0s0,0,0,0c-2.98,0-4.28-1.09-4.28-3.44V1.72h-5.08V25.55c0,5.33,2.44,7.89,9.36,7.89,0,0,0,0,0,0h0c6.21,0,9.27-2.14,9.27-8.73V15.86h-5.12Z"/>
</svg>