<svg width="240" height="85" viewBox="0 0 240 85" fill="none" xmlns="http://www.w3.org/2000/svg">
<path d="M24.7475 78.8799C23.2475 78.8799 22.1875 79.9799 22.1875 81.4799C22.1875 82.9799 23.2475 83.9999 24.7475 83.9999C26.2475 83.9999 27.2675 82.9399 27.2675 81.4799C27.2675 80.0199 26.2475 78.8799 24.7475 78.8799Z" fill="white"/>
<path d="M31.2797 78.8799C29.7897 78.8799 28.6797 79.9799 28.6797 81.4799C28.6797 82.9799 29.7897 83.9999 31.2797 83.9999C32.7697 83.9999 33.7597 82.9399 33.7597 81.4799C33.7597 80.0199 32.6997 78.8799 31.2797 78.8799Z" fill="white"/>
<path d="M44.1616 54.1903C45.6616 54.1903 46.6816 53.0903 46.6816 51.5903C46.6816 50.0903 45.6616 49.0703 44.1616 49.0703C42.6616 49.0703 41.6016 50.1303 41.6016 51.5903C41.6016 53.0503 42.6616 54.1903 44.1616 54.1903Z" fill="white"/>
<path d="M50.7016 54.1903C52.1216 54.1903 53.1816 53.0903 53.1816 51.5903C53.1816 50.0903 52.1216 49.0703 50.7016 49.0703C49.2016 49.0703 48.1016 50.1303 48.1016 51.5903C48.1016 53.0503 49.2016 54.1903 50.7016 54.1903Z" fill="white"/>
<path d="M63.5434 78.8799C62.0434 78.8799 61.0234 79.9799 61.0234 81.4799C61.0234 82.9799 62.0434 83.9999 63.5434 83.9999C65.0434 83.9999 66.0234 82.9399 66.0234 81.4799C66.0234 80.0199 65.0734 78.8799 63.5434 78.8799Z" fill="white"/>
<path d="M62.71 66.8698C62.71 70.4498 61.81 71.3998 58.81 71.3998H54.2C55.54 69.8998 56.29 68.1298 56.29 66.1598C56.29 62.1098 53.14 58.7598 47.47 58.7598C41.8 58.7598 38.41 62.2298 38.41 66.3198C38.41 68.4098 39.28 70.1398 40.5 71.3998H35.62C32.83 71.3998 31.13 70.1798 31.13 67.3398V59.1898H26.33V66.8698C26.33 70.3298 25.46 71.3998 22.31 71.3998H21.32C18.72 71.3998 17.93 70.6098 17.93 68.3298V59.1898H10.84C4.66 59.1898 1 62.6898 1 67.6198C1 71.8698 3.91 75.1798 9.43 75.1798C11.44 75.1798 13.05 74.7498 14.51 73.9998C15.61 75.1798 17.78 75.6898 21.32 75.6898H22.34C25.8 75.6898 28.17 74.9798 29.54 73.2898C30.65 74.8298 32.57 75.6898 35.6 75.6898H40.32C42.8 75.6898 45.36 75.4498 47.17 75.0598C48.9 75.3698 51.43 75.6898 54.38 75.6898H58.79C64.62 75.6898 67.49 73.6798 67.49 67.4998V59.1898H62.69V66.8698H62.71ZM12.97 70.2198C12.3 70.5698 11.2 70.8098 10.06 70.8098C7.15 70.8098 5.77 69.5098 5.77 67.2698C5.77 64.8298 7.5 63.4498 10.14 63.4498H12.98V70.2198H12.97ZM47.31 71.0898C45.14 70.4998 43.26 68.7698 43.26 66.5198C43.26 64.4698 44.95 63.1698 47.39 63.1698C49.83 63.1698 51.49 64.5098 51.49 66.5198C51.49 68.8398 49.36 70.6898 47.32 71.0898H47.31Z" fill="white"/>
<path d="M94.5025 66.8699C94.5025 70.4499 93.5925 71.3999 90.6025 71.3999C87.8025 71.3999 86.5825 70.3799 86.5825 68.1699V45.9199H81.8125V68.2899C81.8125 73.2899 84.1025 75.6899 90.5925 75.6899C96.4225 75.6899 99.2925 73.6799 99.2925 67.4999V59.1899H94.4925V66.8699H94.5025Z" fill="white"/>
<path d="M95.3169 78.8799C93.8169 78.8799 92.7969 79.9799 92.7969 81.4799C92.7969 82.9799 93.8169 83.9999 95.3169 83.9999C96.8169 83.9999 97.7969 82.9399 97.7969 81.4799C97.7969 80.0199 96.8469 78.8799 95.3169 78.8799Z" fill="white"/>
<path d="M126.083 58.0897C127.583 58.0897 128.603 56.9897 128.603 55.4897C128.603 53.9897 127.583 52.9697 126.083 52.9697C124.583 52.9697 123.523 54.0297 123.523 55.4897C123.523 56.9497 124.583 58.0897 126.083 58.0897Z" fill="white"/>
<path d="M132.623 58.0897C134.043 58.0897 135.103 56.9897 135.103 55.4897C135.103 53.9897 134.043 52.9697 132.623 52.9697C131.123 52.9697 130.023 54.0297 130.023 55.4897C130.023 56.9497 131.123 58.0897 132.623 58.0897Z" fill="white"/>
<path d="M142.151 67.4202C142.151 70.3702 141.011 71.4002 138.411 71.4002H122.861C119.281 71.4002 117.071 69.7802 117.071 66.7502C117.071 65.6902 117.311 64.6202 117.821 62.5402L113.651 61.4402C113.061 63.0102 112.391 65.4202 112.391 67.7402C112.391 72.4302 116.011 75.7002 122.121 75.7002H139.881C144.411 75.7002 146.931 73.2202 146.931 69.0802V59.2002H142.161V67.4302L142.151 67.4202Z" fill="white"/>
<path d="M159.678 58.7598C154.208 58.7598 150.898 62.7798 150.898 67.3798C150.898 72.3398 154.168 75.2198 159.208 75.2198C160.748 75.2198 161.888 75.0598 163.068 74.7098C162.868 77.5798 159.918 79.1198 153.298 78.6098L153.578 82.9398C154.598 83.0198 155.548 83.0598 156.418 83.0598C164.058 83.0598 167.838 79.8298 167.838 74.1198V66.9898C167.838 62.2598 165.118 58.7598 159.688 58.7598H159.678ZM163.068 70.4598C162.238 70.6198 161.098 70.7698 159.958 70.7698C157.238 70.7698 155.708 69.5498 155.708 67.1098C155.708 64.6698 157.278 63.1698 159.488 63.1698C161.698 63.1698 163.068 64.5898 163.068 67.6998V70.4598Z" fill="white"/>
<path d="M192.958 54.1903C194.498 54.1903 195.438 53.0903 195.438 51.5903C195.438 50.0903 194.488 49.0703 192.958 49.0703C191.428 49.0703 190.438 50.1303 190.438 51.5903C190.438 53.0503 191.458 54.1903 192.958 54.1903Z" fill="white"/>
<path d="M208.388 54.62C209.888 54.62 210.908 53.52 210.908 52.02C210.908 50.52 209.888 49.5 208.388 49.5C206.888 49.5 205.828 50.56 205.828 52.02C205.828 53.48 206.888 54.62 208.388 54.62Z" fill="white"/>
<path d="M214.928 54.62C216.348 54.62 217.408 53.52 217.408 52.02C217.408 50.52 216.348 49.5 214.928 49.5C213.428 49.5 212.328 50.56 212.328 52.02C212.328 53.48 213.428 54.62 214.928 54.62Z" fill="white"/>
<path d="M230.448 58.7599C225.058 58.7599 221.158 62.1499 221.158 67.0699C221.158 68.7999 221.548 70.2599 222.298 71.3999H218.598C215.798 71.3999 214.108 70.1799 214.108 67.3399V59.1899H209.308V66.8699C209.308 70.3299 208.438 71.3999 205.288 71.3999H204.308H199.698C201.038 69.8999 201.788 68.1299 201.788 66.1599C201.788 62.1099 198.638 58.7599 192.968 58.7599C187.298 58.7599 183.908 62.2299 183.908 66.3199C183.908 68.4099 184.778 70.1399 185.998 71.3999H181.118C178.318 71.3999 177.098 70.3799 177.098 68.1699V45.9199H172.328V68.2899C172.328 73.2899 174.618 75.6899 181.108 75.6899H185.828C188.308 75.6899 190.868 75.4499 192.678 75.0599C194.408 75.3699 196.928 75.6899 199.888 75.6899H204.298H205.318C208.788 75.6899 211.148 74.9799 212.528 73.2899C213.628 74.8299 215.558 75.6899 218.588 75.6899H229.138C235.678 75.6899 238.988 72.4199 238.988 67.1499C238.988 62.4999 235.878 58.7599 230.438 58.7599H230.448ZM192.798 71.0899C190.628 70.4999 188.738 68.7699 188.738 66.5199C188.738 64.4699 190.428 63.1699 192.868 63.1699C195.308 63.1699 196.968 64.5099 196.968 66.5199C196.968 68.8399 194.838 70.6899 192.798 71.0899ZM229.658 71.4099H227.258C226.508 70.3899 225.958 69.0499 225.958 67.5499C225.958 64.6799 227.768 63.1799 230.128 63.1799C232.488 63.1799 234.148 64.7899 234.148 67.2799C234.148 69.3699 233.198 71.4199 229.658 71.4199V71.4099Z" fill="white"/>
<path d="M206.974 23.8605C207.974 23.8605 208.854 23.8605 209.734 23.8605C216.354 23.8505 222.984 23.8205 229.604 23.8305C231.374 23.8305 232.454 23.3605 232.444 21.0405V18.8105C232.094 18.8105 231.784 18.8105 231.474 18.8105C224.794 18.8205 218.114 18.8505 211.444 18.8305C210.654 18.8305 209.824 18.6305 209.074 18.3705C207.454 17.8005 206.794 16.5105 206.784 14.8605C206.764 10.6105 206.784 6.35047 206.734 2.10047C206.734 1.31047 206.914 1.05047 207.744 1.05047C214.584 1.07047 221.424 1.05047 228.264 1.03047C229.784 1.03047 231.314 0.990473 232.834 1.03047C234.374 1.07047 235.824 1.40047 237.104 2.39047C238.134 3.20047 238.564 4.27047 238.784 5.47047C238.914 6.17047 238.954 6.89047 238.954 7.60047C238.974 12.7405 239.004 17.8705 238.974 23.0105C238.974 24.5405 238.514 25.9805 237.374 27.0905C236.324 28.1205 234.984 28.5605 233.574 28.5805C225.914 28.6905 218.264 28.7405 210.604 28.8005C209.614 28.8005 208.624 28.8005 207.634 28.8005C207.244 28.8005 206.944 28.7605 206.954 28.2505C206.954 26.8105 206.954 25.3705 206.954 23.8405L206.974 23.8605ZM232.444 14.6605C232.444 12.2905 232.444 10.0505 232.424 7.81047C232.424 7.66047 232.354 7.51047 232.304 7.36047C231.834 5.97047 230.584 5.85047 229.464 5.84047C224.134 5.79047 218.794 5.84047 213.454 5.84047C212.854 5.84047 212.664 6.05047 212.674 6.63047C212.704 8.58047 212.634 10.5305 212.714 12.4805C212.774 13.9505 213.084 14.6805 214.914 14.6905C220.494 14.7105 226.064 14.6805 231.644 14.6705H232.444V14.6605Z" fill="white"/>
<path d="M204.301 1.06055C204.301 2.70055 204.301 4.24055 204.301 5.85055H203.321C196.191 5.87055 189.051 5.87055 181.921 5.91055C181.261 5.91055 180.571 6.11055 179.951 6.35055C179.191 6.64055 178.861 7.32055 178.861 8.12055C178.861 12.6405 178.861 17.1605 178.881 21.6905C178.881 22.8805 179.861 23.8905 181.101 23.9005C186.901 23.9005 192.691 23.8905 198.621 23.8805C198.621 23.5905 198.621 23.3405 198.621 23.0905C198.621 21.0805 198.621 19.0805 198.611 17.0705C198.611 15.7505 198.051 15.1905 196.731 15.2005C192.721 15.2005 188.721 15.2005 184.711 15.2405C184.041 15.2405 183.821 15.0405 183.851 14.3705C183.891 13.3105 183.851 12.2405 183.851 11.1305C184.111 11.1105 184.321 11.0805 184.521 11.0805C189.841 11.0705 195.151 11.0305 200.471 11.0705C201.901 11.0705 203.241 11.5005 204.001 12.8805C204.251 13.3305 204.481 13.8505 204.481 14.3505C204.521 19.0805 204.521 23.8205 204.531 28.6805H203.661C195.081 28.7005 186.511 28.7605 177.931 28.7005C175.261 28.6805 173.301 27.5405 172.571 24.7305C172.411 24.1005 172.331 23.4305 172.331 22.7705C172.301 17.5505 172.271 12.3305 172.301 7.12055C172.321 3.89055 173.881 1.63055 177.301 1.30055C177.901 1.24055 178.511 1.15055 179.111 1.15055C187.151 1.12055 195.191 1.11055 203.231 1.10055H204.261L204.301 1.06055Z" fill="white"/>
</svg>
