<svg xmlns="http://www.w3.org/2000/svg" xmlns:xlink="http://www.w3.org/1999/xlink" viewBox="0 0 1080 1080" width="1080" height="1080" preserveAspectRatio="xMidYMid meet" style="width: 100%; height: 100%; transform: translate3d(0px, 0px, 0px); content-visibility: visible;"><defs><clipPath id="__lottie_element_33"><rect width="1080" height="1080" x="0" y="0"></rect></clipPath><symbol id="__lottie_element_40"><g><g transform="matrix(1,0,0,1,-0.25,217.28900146484375)" opacity="1" style="display: block;"><g opacity="1" transform="matrix(1,0,0,1,540.25,322.71099853515625)"><path fill="rgb(218,218,218)" fill-opacity="1" d=" M217.53900146484375,-322.46099853515625 C133.70599365234375,-322.46099853515625 57.34700012207031,-290.46600341796875 0,-238.0260009765625 C-57.34700012207031,-290.46600341796875 -133.70599365234375,-322.46099853515625 -217.53900146484375,-322.46099853515625 C-395.6300048828125,-322.46099853515625 -540,-178.08999633789062 -540,0 C-540,178.08999633789062 -395.6300048828125,322.46099853515625 -217.53900146484375,322.46099853515625 C-133.70599365234375,322.46099853515625 -57.34700012207031,290.46600341796875 0,238.0260009765625 C57.34700012207031,290.46600341796875 133.70599365234375,322.46099853515625 217.53900146484375,322.46099853515625 C395.6289978027344,322.46099853515625 540,178.08999633789062 540,0 C540,-178.08999633789062 395.6289978027344,-322.46099853515625 217.53900146484375,-322.46099853515625z"></path></g></g></g></symbol><mask id="__lottie_element_40_1" mask-type="alpha"><use xlink:href="#__lottie_element_40"></use></mask></defs><g clip-path="url(#__lottie_element_33)"><g transform="matrix(1,0,0,1,0,-420)" opacity="1" style="display: block;"><rect width="1080" height="1920" fill="#ffffff"></rect></g><g mask="url(#__lottie_element_40_1)" style="display: block;"><g transform="matrix(1,0,0,1,-551.864990234375,547.4480590820312)" opacity="1"><g opacity="1" transform="matrix(1,0,0,1,930.3920288085938,280.9989929199219)"><path fill="rgb(229,230,228)" fill-opacity="1" d=" M378.5270080566406,167.49899291992188 C378.5270080566406,398.9339904785156 190.91200256347656,586.5499877929688 -40.52399826049805,586.5499877929688 C-271.9590148925781,586.5499877929688 -459.5740051269531,398.9339904785156 -459.5740051269531,167.49899291992188 C-459.5740051269531,-63.93600082397461 -271.9590148925781,-251.552001953125 -40.52399826049805,-251.552001953125 C190.91200256347656,-251.552001953125 378.5270080566406,-63.93600082397461 378.5270080566406,167.49899291992188z"></path></g><g opacity="1" transform="matrix(1,0,0,1,1254.2149658203125,280.9989929199219)"><path fill="rgb(229,230,228)" fill-opacity="1" d=" M460.45098876953125,167.49899291992188 C460.45098876953125,398.9339904785156 272.83599853515625,586.5499877929688 41.400001525878906,586.5499877929688 C-190.03500366210938,586.5499877929688 -377.6499938964844,398.9339904785156 -377.6499938964844,167.49899291992188 C-377.6499938964844,-63.93600082397461 -190.03500366210938,-251.552001953125 41.400001525878906,-251.552001953125 C272.83599853515625,-251.552001953125 460.45098876953125,-63.93600082397461 460.45098876953125,167.49899291992188z"></path></g><g opacity="1" transform="matrix(1,0,0,1,1377.68701171875,266.4010009765625)"><path fill="rgb(229,230,228)" fill-opacity="1" d=" M583.9229736328125,152.89999389648438 C583.9229736328125,384.3349914550781 396.3080139160156,571.9509887695312 164.8719940185547,571.9509887695312 C-66.56300354003906,571.9509887695312 -254.17799377441406,384.3349914550781 -254.17799377441406,152.89999389648438 C-254.17799377441406,-78.53500366210938 -66.56300354003906,-266.1510009765625 164.8719940185547,-266.1510009765625 C396.3080139160156,-266.1510009765625 583.9229736328125,-78.53500366210938 583.9229736328125,152.89999389648438z"></path></g><g opacity="1" transform="matrix(1,0,0,1,866.8280029296875,275.0899963378906)"><path fill="rgb(229,230,228)" fill-opacity="1" d=" M314.9630126953125,330.21099853515625 C314.9630126953125,654.7739868164062 51.85300064086914,917.8839721679688 -272.7099914550781,917.8839721679688 C-597.27197265625,917.8839721679688 -860.3820190429688,654.7739868164062 -860.3820190429688,330.21099853515625 C-860.3820190429688,5.6479997634887695 -597.27197265625,-257.4620056152344 -272.7099914550781,-257.4620056152344 C51.85300064086914,-257.4620056152344 314.9630126953125,5.6479997634887695 314.9630126953125,330.21099853515625z"></path></g><g opacity="1" transform="matrix(1,0,0,1,1091.864990234375,279.0199890136719)"><path fill="rgb(255,255,255)" fill-opacity="1" d=" M130.39100646972656,-243.12600708007812 C130.39100646972656,-243.12600708007812 -130.39100646972656,-243.12600708007812 -130.39100646972656,-243.12600708007812 C-130.39100646972656,-243.12600708007812 -1091.614990234375,243.12600708007812 -1091.614990234375,243.12600708007812 C-1091.614990234375,243.12600708007812 1086.262939453125,240.41900634765625 1086.262939453125,240.41900634765625 C1086.262939453125,240.41900634765625 130.39100646972656,-243.12600708007812 130.39100646972656,-243.12600708007812z"></path></g><g opacity="1" transform="matrix(1,0,0,1,1091.864990234375,282.46099853515625)"><path fill="rgb(229,230,228)" fill-opacity="1" d=" M6.048999786376953,-238.34500122070312 C6.048999786376953,-238.34500122070312 -6.047999858856201,-238.34500122070312 -6.047999858856201,-238.34500122070312 C-6.047999858856201,-238.34500122070312 -31.642000198364258,238.34500122070312 -31.642000198364258,238.34500122070312 C-31.642000198364258,238.34500122070312 31.64299964904785,238.34500122070312 31.64299964904785,238.34500122070312 C31.64299964904785,238.34500122070312 6.048999786376953,-238.34500122070312 6.048999786376953,-238.34500122070312z"></path></g><g opacity="1" transform="matrix(1,0,0,1,1091.3919677734375,65.12799835205078)"><path fill="rgb(255,255,255)" fill-opacity="1" d=" M17.854999542236328,1.6019999980926514 C17.854999542236328,1.6019999980926514 -17.854999542236328,1.6019999980926514 -17.854999542236328,1.6019999980926514 C-17.854999542236328,1.6019999980926514 -17.854999542236328,-1.6019999980926514 -17.854999542236328,-1.6019999980926514 C-17.854999542236328,-1.6019999980926514 17.854999542236328,-1.6019999980926514 17.854999542236328,-1.6019999980926514 C17.854999542236328,-1.6019999980926514 17.854999542236328,1.6019999980926514 17.854999542236328,1.6019999980926514z"></path></g><g opacity="1" transform="matrix(1,0,0,1,1091.3919677734375,118.177001953125)"><path fill="rgb(255,255,255)" fill-opacity="1" d=" M17.854999542236328,4.2270002365112305 C17.854999542236328,4.2270002365112305 -17.854999542236328,4.2270002365112305 -17.854999542236328,4.2270002365112305 C-17.854999542236328,4.2270002365112305 -17.854999542236328,-4.2270002365112305 -17.854999542236328,-4.2270002365112305 C-17.854999542236328,-4.2270002365112305 17.854999542236328,-4.2270002365112305 17.854999542236328,-4.2270002365112305 C17.854999542236328,-4.2270002365112305 17.854999542236328,4.2270002365112305 17.854999542236328,4.2270002365112305z"></path></g><g opacity="1" transform="matrix(1,0,0,1,1091.3909912109375,204.2899932861328)"><path fill="rgb(255,255,255)" fill-opacity="1" d=" M32.117000579833984,9.189000129699707 C32.117000579833984,9.189000129699707 -32.11600112915039,9.189000129699707 -32.11600112915039,9.189000129699707 C-32.11600112915039,9.189000129699707 -32.11600112915039,-9.189000129699707 -32.11600112915039,-9.189000129699707 C-32.11600112915039,-9.189000129699707 32.117000579833984,-9.189000129699707 32.117000579833984,-9.189000129699707 C32.117000579833984,-9.189000129699707 32.117000579833984,9.189000129699707 32.117000579833984,9.189000129699707z"></path></g></g></g><g transform="matrix(1,0,0,1,-0.25,217.28900146484375)" opacity="1" style="display: block;"><g opacity="1" transform="matrix(1,0,0,1,540.25,322.71099853515625)"><path fill="rgb(229,230,228)" fill-opacity="1" d=" M217.53900146484375,-319.60101318359375 C260.6860046386719,-319.60101318359375 302.5409851074219,-311.1510009765625 341.9410095214844,-294.4859924316406 C379.9989929199219,-278.3890075683594 414.1789855957031,-255.34500122070312 443.531005859375,-225.99200439453125 C472.8840026855469,-196.63999938964844 495.9289855957031,-162.4600067138672 512.0250244140625,-124.4020004272461 C528.6900024414062,-85.00199890136719 537.1400146484375,-43.14699935913086 537.1400146484375,0 C537.1400146484375,43.14699935913086 528.6900024414062,85.00199890136719 512.0250244140625,124.4020004272461 C495.9289855957031,162.4600067138672 472.8840026855469,196.63900756835938 443.531005859375,225.99200439453125 C414.1789855957031,255.343994140625 379.9989929199219,278.3890075683594 341.9410095214844,294.4859924316406 C302.5409851074219,311.1510009765625 260.6860046386719,319.60101318359375 217.53900146484375,319.60101318359375 C137.51699829101562,319.60101318359375 60.94499969482422,289.8810119628906 1.9299999475479126,235.9149932861328 C1.9299999475479126,235.9149932861328 0,234.14999389648438 0,234.14999389648438 C0,234.14999389648438 -1.9299999475479126,235.9149932861328 -1.9299999475479126,235.9149932861328 C-60.94499969482422,289.8810119628906 -137.51600646972656,319.60101318359375 -217.53900146484375,319.60101318359375 C-260.6860046386719,319.60101318359375 -302.5409851074219,311.1510009765625 -341.9410095214844,294.4859924316406 C-379.9989929199219,278.3890075683594 -414.1789855957031,255.343994140625 -443.531005859375,225.99200439453125 C-472.88299560546875,196.63900756835938 -495.9280090332031,162.4600067138672 -512.0250244140625,124.4020004272461 C-528.6900024414062,85.00199890136719 -537.1400146484375,43.14699935913086 -537.1400146484375,0 C-537.1400146484375,-43.14699935913086 -528.6900024414062,-85.00199890136719 -512.0250244140625,-124.4020004272461 C-495.9280090332031,-162.4600067138672 -472.88299560546875,-196.63999938964844 -443.531005859375,-225.99200439453125 C-414.1789855957031,-255.34500122070312 -379.9989929199219,-278.3890075683594 -341.9410095214844,-294.4859924316406 C-302.5409851074219,-311.1510009765625 -260.6860046386719,-319.60101318359375 -217.53900146484375,-319.60101318359375 C-137.51600646972656,-319.60101318359375 -60.94499969482422,-289.8810119628906 -1.9299999475479126,-235.9149932861328 C-1.9299999475479126,-235.9149932861328 0,-234.14999389648438 0,-234.14999389648438 C0,-234.14999389648438 1.9299999475479126,-235.9149932861328 1.9299999475479126,-235.9149932861328 C60.94499969482422,-289.8810119628906 137.51699829101562,-319.60101318359375 217.53900146484375,-319.60101318359375z M217.53900146484375,-322.46099853515625 C133.70599365234375,-322.46099853515625 57.34700012207031,-290.46600341796875 0,-238.0260009765625 C-57.34700012207031,-290.46600341796875 -133.70599365234375,-322.46099853515625 -217.53900146484375,-322.46099853515625 C-395.6289978027344,-322.46099853515625 -540,-178.08999633789062 -540,0 C-540,178.08999633789062 -395.6289978027344,322.46099853515625 -217.53900146484375,322.46099853515625 C-133.70599365234375,322.46099853515625 -57.34700012207031,290.46600341796875 0,238.0260009765625 C57.34700012207031,290.46600341796875 133.70599365234375,322.46099853515625 217.53900146484375,322.46099853515625 C395.6289978027344,322.46099853515625 540,178.08999633789062 540,0 C540,-178.08999633789062 395.6289978027344,-322.46099853515625 217.53900146484375,-322.46099853515625z"></path></g></g><g transform="matrix(1,0,0,1,147.99301147460938,441.406005859375)" opacity="1" style="display: block;"><g opacity="1" transform="matrix(1,0,0,1,510.73699951171875,38.12099838256836)"><path stroke-linecap="butt" stroke-linejoin="miter" fill-opacity="0" stroke-miterlimit="10" stroke="rgb(229,230,228)" stroke-opacity="1" stroke-width="4.29" d=" M11.923999786376953,11.305999755859375 C11.923999786376953,11.305999755859375 11.923999786376953,-11.305999755859375 11.923999786376953,-11.305999755859375 C11.923999786376953,-11.305999755859375 -11.923999786376953,-11.305999755859375 -11.923999786376953,-11.305999755859375"></path></g><g opacity="1" transform="matrix(1,0,0,1,278.0260009765625,38.12099838256836)"><path stroke-linecap="butt" stroke-linejoin="miter" fill-opacity="0" stroke-miterlimit="10" stroke="rgb(229,230,228)" stroke-opacity="1" stroke-width="4.29" d=" M11.923999786376953,-11.307000160217285 C11.923999786376953,-11.307000160217285 -11.923999786376953,-11.307000160217285 -11.923999786376953,-11.307000160217285 C-11.923999786376953,-11.307000160217285 -11.923999786376953,11.307000160217285 -11.923999786376953,11.307000160217285"></path></g><g opacity="1" transform="matrix(1,0,0,1,278.0260009765625,161.46499633789062)"><path stroke-linecap="butt" stroke-linejoin="miter" fill-opacity="0" stroke-miterlimit="10" stroke="rgb(229,230,228)" stroke-opacity="1" stroke-width="4.29" d=" M-11.92300033569336,-11.307000160217285 C-11.92300033569336,-11.307000160217285 -11.92300033569336,11.307000160217285 -11.92300033569336,11.307000160217285 C-11.92300033569336,11.307000160217285 11.92300033569336,11.307000160217285 11.92300033569336,11.307000160217285"></path></g><g opacity="1" transform="matrix(1,0,0,1,510.73699951171875,161.46499633789062)"><path stroke-linecap="butt" stroke-linejoin="miter" fill-opacity="0" stroke-miterlimit="10" stroke="rgb(229,230,228)" stroke-opacity="1" stroke-width="4.29" d=" M-11.92300033569336,11.305999755859375 C-11.92300033569336,11.305999755859375 11.92300033569336,11.305999755859375 11.92300033569336,11.305999755859375 C11.92300033569336,11.305999755859375 11.92300033569336,-11.305999755859375 11.92300033569336,-11.305999755859375"></path></g><g opacity="1" transform="matrix(1,0,0,1,0,0)"><path stroke-linecap="butt" stroke-linejoin="miter" fill-opacity="0" stroke-miterlimit="10" stroke="rgb(229,230,228)" stroke-opacity="1" stroke-width="4.29" d=" M2.1449999809265137,2.1449999809265137 C2.1449999809265137,2.1449999809265137 16.945999145507812,2.1449999809265137 16.945999145507812,2.1449999809265137"></path></g><g opacity="1" transform="matrix(1,0,0,1,0,0)"><path stroke-linecap="butt" stroke-linejoin="miter" fill-opacity="0" stroke-miterlimit="10" stroke="rgb(229,230,228)" stroke-opacity="1" stroke-width="4.29" d=" M2.1449999809265137,17.974000930786133 C2.1449999809265137,17.974000930786133 9.545999526977539,17.974000930786133 9.545999526977539,17.974000930786133"></path></g><g opacity="1" transform="matrix(1,0,0,1,0,0)"><path stroke-linecap="butt" stroke-linejoin="miter" fill-opacity="0" stroke-miterlimit="10" stroke="rgb(229,230,228)" stroke-opacity="1" stroke-width="4.29" d=" M2.1449999809265137,33.80400085449219 C2.1449999809265137,33.80400085449219 9.545999526977539,33.80400085449219 9.545999526977539,33.80400085449219"></path></g><g opacity="1" transform="matrix(1,0,0,1,0,0)"><path stroke-linecap="butt" stroke-linejoin="miter" fill-opacity="0" stroke-miterlimit="10" stroke="rgb(229,230,228)" stroke-opacity="1" stroke-width="4.29" d=" M2.1449999809265137,49.632999420166016 C2.1449999809265137,49.632999420166016 9.545999526977539,49.632999420166016 9.545999526977539,49.632999420166016"></path></g><g opacity="1" transform="matrix(1,0,0,1,0,0)"><path stroke-linecap="butt" stroke-linejoin="miter" fill-opacity="0" stroke-miterlimit="10" stroke="rgb(229,230,228)" stroke-opacity="1" stroke-width="4.29" d=" M2.1449999809265137,81.29100036621094 C2.1449999809265137,81.29100036621094 9.545999526977539,81.29100036621094 9.545999526977539,81.29100036621094"></path></g><g opacity="1" transform="matrix(1,0,0,1,0,0)"><path stroke-linecap="butt" stroke-linejoin="miter" fill-opacity="0" stroke-miterlimit="10" stroke="rgb(229,230,228)" stroke-opacity="1" stroke-width="4.29" d=" M2.1449999809265137,97.12000274658203 C2.1449999809265137,97.12000274658203 9.545999526977539,97.12000274658203 9.545999526977539,97.12000274658203"></path></g><g opacity="1" transform="matrix(1,0,0,1,0,0)"><path stroke-linecap="butt" stroke-linejoin="miter" fill-opacity="0" stroke-miterlimit="10" stroke="rgb(229,230,228)" stroke-opacity="1" stroke-width="4.29" d=" M2.1449999809265137,112.94999694824219 C2.1449999809265137,112.94999694824219 9.545999526977539,112.94999694824219 9.545999526977539,112.94999694824219"></path></g><g opacity="1" transform="matrix(1,0,0,1,0,0)"><path stroke-linecap="butt" stroke-linejoin="miter" fill-opacity="0" stroke-miterlimit="10" stroke="rgb(229,230,228)" stroke-opacity="1" stroke-width="4.29" d=" M2.1449999809265137,144.60800170898438 C2.1449999809265137,144.60800170898438 9.545999526977539,144.60800170898438 9.545999526977539,144.60800170898438"></path></g><g opacity="1" transform="matrix(1,0,0,1,0,0)"><path stroke-linecap="butt" stroke-linejoin="miter" fill-opacity="0" stroke-miterlimit="10" stroke="rgb(229,230,228)" stroke-opacity="1" stroke-width="4.29" d=" M2.1449999809265137,160.43800354003906 C2.1449999809265137,160.43800354003906 9.545999526977539,160.43800354003906 9.545999526977539,160.43800354003906"></path></g><g opacity="1" transform="matrix(1,0,0,1,0,0)"><path stroke-linecap="butt" stroke-linejoin="miter" fill-opacity="0" stroke-miterlimit="10" stroke="rgb(229,230,228)" stroke-opacity="1" stroke-width="4.29" d=" M2.1449999809265137,176.26699829101562 C2.1449999809265137,176.26699829101562 9.545999526977539,176.26699829101562 9.545999526977539,176.26699829101562"></path></g><g opacity="1" transform="matrix(1,0,0,1,0,0)"><path stroke-linecap="butt" stroke-linejoin="miter" fill-opacity="0" stroke-miterlimit="10" stroke="rgb(229,230,228)" stroke-opacity="1" stroke-width="4.29" d=" M2.1449999809265137,65.46199798583984 C2.1449999809265137,65.46199798583984 16.945999145507812,65.46199798583984 16.945999145507812,65.46199798583984"></path></g><g opacity="1" transform="matrix(1,0,0,1,0,0)"><path stroke-linecap="butt" stroke-linejoin="miter" fill-opacity="0" stroke-miterlimit="10" stroke="rgb(229,230,228)" stroke-opacity="1" stroke-width="4.29" d=" M2.1449999809265137,128.7790069580078 C2.1449999809265137,128.7790069580078 16.945999145507812,128.7790069580078 16.945999145507812,128.7790069580078"></path></g><g opacity="1" transform="matrix(1,0,0,1,0,0)"><path stroke-linecap="butt" stroke-linejoin="miter" fill-opacity="0" stroke-miterlimit="10" stroke="rgb(229,230,228)" stroke-opacity="1" stroke-width="4.29" d=" M2.1449999809265137,192.0959930419922 C2.1449999809265137,192.0959930419922 16.945999145507812,192.0959930419922 16.945999145507812,192.0959930419922"></path></g><g opacity="1" transform="matrix(1,0,0,1,0,0)"><path stroke-linecap="butt" stroke-linejoin="miter" fill-opacity="0" stroke-miterlimit="10" stroke="rgb(229,230,228)" stroke-opacity="1" stroke-width="4.29" d=" M393.97100830078125,271.447998046875 C393.97100830078125,271.447998046875 393.97100830078125,286.2489929199219 393.97100830078125,286.2489929199219"></path></g><g opacity="1" transform="matrix(1,0,0,1,0,0)"><path stroke-linecap="butt" stroke-linejoin="miter" fill-opacity="0" stroke-miterlimit="10" stroke="rgb(229,230,228)" stroke-opacity="1" stroke-width="4.29" d=" M378.1409912109375,271.447998046875 C378.1409912109375,271.447998046875 378.1409912109375,278.8489990234375 378.1409912109375,278.8489990234375"></path></g><g opacity="1" transform="matrix(1,0,0,1,0,0)"><path stroke-linecap="butt" stroke-linejoin="miter" fill-opacity="0" stroke-miterlimit="10" stroke="rgb(229,230,228)" stroke-opacity="1" stroke-width="4.29" d=" M362.31201171875,271.447998046875 C362.31201171875,271.447998046875 362.31201171875,278.8489990234375 362.31201171875,278.8489990234375"></path></g><g opacity="1" transform="matrix(1,0,0,1,0,0)"><path stroke-linecap="butt" stroke-linejoin="miter" fill-opacity="0" stroke-miterlimit="10" stroke="rgb(229,230,228)" stroke-opacity="1" stroke-width="4.29" d=" M346.4830017089844,271.447998046875 C346.4830017089844,271.447998046875 346.4830017089844,278.8489990234375 346.4830017089844,278.8489990234375"></path></g><g opacity="1" transform="matrix(1,0,0,1,0,0)"><path stroke-linecap="butt" stroke-linejoin="miter" fill-opacity="0" stroke-miterlimit="10" stroke="rgb(229,230,228)" stroke-opacity="1" stroke-width="4.29" d=" M314.8240051269531,271.447998046875 C314.8240051269531,271.447998046875 314.8240051269531,278.8489990234375 314.8240051269531,278.8489990234375"></path></g><g opacity="1" transform="matrix(1,0,0,1,0,0)"><path stroke-linecap="butt" stroke-linejoin="miter" fill-opacity="0" stroke-miterlimit="10" stroke="rgb(229,230,228)" stroke-opacity="1" stroke-width="4.29" d=" M298.9949951171875,271.447998046875 C298.9949951171875,271.447998046875 298.9949951171875,278.8489990234375 298.9949951171875,278.8489990234375"></path></g><g opacity="1" transform="matrix(1,0,0,1,0,0)"><path stroke-linecap="butt" stroke-linejoin="miter" fill-opacity="0" stroke-miterlimit="10" stroke="rgb(229,230,228)" stroke-opacity="1" stroke-width="4.29" d=" M283.1659851074219,271.447998046875 C283.1659851074219,271.447998046875 283.1659851074219,278.8489990234375 283.1659851074219,278.8489990234375"></path></g><g opacity="1" transform="matrix(1,0,0,1,0,0)"><path stroke-linecap="butt" stroke-linejoin="miter" fill-opacity="0" stroke-miterlimit="10" stroke="rgb(229,230,228)" stroke-opacity="1" stroke-width="4.29" d=" M251.5070037841797,271.447998046875 C251.5070037841797,271.447998046875 251.5070037841797,278.8489990234375 251.5070037841797,278.8489990234375"></path></g><g opacity="1" transform="matrix(1,0,0,1,0,0)"><path stroke-linecap="butt" stroke-linejoin="miter" fill-opacity="0" stroke-miterlimit="10" stroke="rgb(229,230,228)" stroke-opacity="1" stroke-width="4.29" d=" M235.67799377441406,271.447998046875 C235.67799377441406,271.447998046875 235.67799377441406,278.8489990234375 235.67799377441406,278.8489990234375"></path></g><g opacity="1" transform="matrix(1,0,0,1,0,0)"><path stroke-linecap="butt" stroke-linejoin="miter" fill-opacity="0" stroke-miterlimit="10" stroke="rgb(229,230,228)" stroke-opacity="1" stroke-width="4.29" d=" M219.8489990234375,271.447998046875 C219.8489990234375,271.447998046875 219.8489990234375,278.8489990234375 219.8489990234375,278.8489990234375"></path></g><g opacity="1" transform="matrix(1,0,0,1,0,0)"><path stroke-linecap="butt" stroke-linejoin="miter" fill-opacity="0" stroke-miterlimit="10" stroke="rgb(229,230,228)" stroke-opacity="1" stroke-width="4.29" d=" M330.65301513671875,271.447998046875 C330.65301513671875,271.447998046875 330.65301513671875,286.2489929199219 330.65301513671875,286.2489929199219"></path></g><g opacity="1" transform="matrix(1,0,0,1,0,0)"><path stroke-linecap="butt" stroke-linejoin="miter" fill-opacity="0" stroke-miterlimit="10" stroke="rgb(229,230,228)" stroke-opacity="1" stroke-width="4.29" d=" M267.33599853515625,271.447998046875 C267.33599853515625,271.447998046875 267.33599853515625,286.2489929199219 267.33599853515625,286.2489929199219"></path></g><g opacity="1" transform="matrix(1,0,0,1,0,0)"><path stroke-linecap="butt" stroke-linejoin="miter" fill-opacity="0" stroke-miterlimit="10" stroke="rgb(229,230,228)" stroke-opacity="1" stroke-width="4.29" d=" M204.0189971923828,271.447998046875 C204.0189971923828,271.447998046875 204.0189971923828,286.2489929199219 204.0189971923828,286.2489929199219"></path></g><g opacity="1" transform="matrix(1,0,0,1,0,0)"><path stroke-linecap="butt" stroke-linejoin="miter" fill-opacity="0" stroke-miterlimit="10" stroke="rgb(229,230,228)" stroke-opacity="1" stroke-width="4.29" d=" M583.510009765625,271.447998046875 C583.510009765625,271.447998046875 583.510009765625,286.2489929199219 583.510009765625,286.2489929199219"></path></g><g opacity="1" transform="matrix(1,0,0,1,0,0)"><path stroke-linecap="butt" stroke-linejoin="miter" fill-opacity="0" stroke-miterlimit="10" stroke="rgb(229,230,228)" stroke-opacity="1" stroke-width="4.29" d=" M567.6810302734375,271.447998046875 C567.6810302734375,271.447998046875 567.6810302734375,278.8489990234375 567.6810302734375,278.8489990234375"></path></g><g opacity="1" transform="matrix(1,0,0,1,0,0)"><path stroke-linecap="butt" stroke-linejoin="miter" fill-opacity="0" stroke-miterlimit="10" stroke="rgb(229,230,228)" stroke-opacity="1" stroke-width="4.29" d=" M551.8519897460938,271.447998046875 C551.8519897460938,271.447998046875 551.8519897460938,278.8489990234375 551.8519897460938,278.8489990234375"></path></g><g opacity="1" transform="matrix(1,0,0,1,0,0)"><path stroke-linecap="butt" stroke-linejoin="miter" fill-opacity="0" stroke-miterlimit="10" stroke="rgb(229,230,228)" stroke-opacity="1" stroke-width="4.29" d=" M536.0230102539062,271.447998046875 C536.0230102539062,271.447998046875 536.0230102539062,278.8489990234375 536.0230102539062,278.8489990234375"></path></g><g opacity="1" transform="matrix(1,0,0,1,0,0)"><path stroke-linecap="butt" stroke-linejoin="miter" fill-opacity="0" stroke-miterlimit="10" stroke="rgb(229,230,228)" stroke-opacity="1" stroke-width="4.29" d=" M504.364013671875,271.447998046875 C504.364013671875,271.447998046875 504.364013671875,278.8489990234375 504.364013671875,278.8489990234375"></path></g><g opacity="1" transform="matrix(1,0,0,1,0,0)"><path stroke-linecap="butt" stroke-linejoin="miter" fill-opacity="0" stroke-miterlimit="10" stroke="rgb(229,230,228)" stroke-opacity="1" stroke-width="4.29" d=" M488.5350036621094,271.447998046875 C488.5350036621094,271.447998046875 488.5350036621094,278.8489990234375 488.5350036621094,278.8489990234375"></path></g><g opacity="1" transform="matrix(1,0,0,1,0,0)"><path stroke-linecap="butt" stroke-linejoin="miter" fill-opacity="0" stroke-miterlimit="10" stroke="rgb(229,230,228)" stroke-opacity="1" stroke-width="4.29" d=" M472.70599365234375,271.447998046875 C472.70599365234375,271.447998046875 472.70599365234375,278.8489990234375 472.70599365234375,278.8489990234375"></path></g><g opacity="1" transform="matrix(1,0,0,1,0,0)"><path stroke-linecap="butt" stroke-linejoin="miter" fill-opacity="0" stroke-miterlimit="10" stroke="rgb(229,230,228)" stroke-opacity="1" stroke-width="4.29" d=" M441.0469970703125,271.447998046875 C441.0469970703125,271.447998046875 441.0469970703125,278.8489990234375 441.0469970703125,278.8489990234375"></path></g><g opacity="1" transform="matrix(1,0,0,1,0,0)"><path stroke-linecap="butt" stroke-linejoin="miter" fill-opacity="0" stroke-miterlimit="10" stroke="rgb(229,230,228)" stroke-opacity="1" stroke-width="4.29" d=" M425.2179870605469,271.447998046875 C425.2179870605469,271.447998046875 425.2179870605469,278.8489990234375 425.2179870605469,278.8489990234375"></path></g><g opacity="1" transform="matrix(1,0,0,1,0,0)"><path stroke-linecap="butt" stroke-linejoin="miter" fill-opacity="0" stroke-miterlimit="10" stroke="rgb(229,230,228)" stroke-opacity="1" stroke-width="4.29" d=" M409.3890075683594,271.447998046875 C409.3890075683594,271.447998046875 409.3890075683594,278.8489990234375 409.3890075683594,278.8489990234375"></path></g><g opacity="1" transform="matrix(1,0,0,1,0,0)"><path stroke-linecap="butt" stroke-linejoin="miter" fill-opacity="0" stroke-miterlimit="10" stroke="rgb(229,230,228)" stroke-opacity="1" stroke-width="4.29" d=" M520.1929931640625,271.447998046875 C520.1929931640625,271.447998046875 520.1929931640625,286.2489929199219 520.1929931640625,286.2489929199219"></path></g><g opacity="1" transform="matrix(1,0,0,1,0,0)"><path stroke-linecap="butt" stroke-linejoin="miter" fill-opacity="0" stroke-miterlimit="10" stroke="rgb(229,230,228)" stroke-opacity="1" stroke-width="4.29" d=" M456.8760070800781,271.447998046875 C456.8760070800781,271.447998046875 456.8760070800781,286.2489929199219 456.8760070800781,286.2489929199219"></path></g></g></g></svg>